<svg width="498" height="337" viewBox="0 0 498 337" fill="none" xmlns="http://www.w3.org/2000/svg">
<g clip-path="url(#clip0_444_3258)">
<path d="M33.5142 253.948C31.1494 253.948 28.7798 254.046 26.4657 254.242L26.1289 254.271C10.7794 255.629 -0.448014 263.506 0.0137392 272.595L0.103007 274.238C0.161874 275.277 0.224596 276.394 0.276222 277.633C0.304183 278.244 1.13751 278.713 2.17441 278.713H379.735C406.355 278.551 432.878 278.348 458.564 278.108C463.381 278.118 468.196 277.868 472.986 277.36C480.124 276.515 485.079 274.839 488.134 272.237H488.135C491.934 269.011 492.054 264.948 491.824 260.357C491.356 251.089 490.892 241.351 490.429 231.644C490.02 223.088 489.613 214.555 489.205 206.386C488.953 201.538 488.394 197.259 484.079 193.988C479.403 190.451 470.874 188.658 458.729 188.658C458.582 188.658 458.437 188.658 458.288 188.659C420.228 188.794 382.516 201.89 364.448 221.245C362.368 223.474 360.429 225.86 358.554 228.168C355.783 231.577 352.919 235.102 349.501 238.254C347.651 239.984 345.649 241.545 343.521 242.919C343.374 243.02 343.206 243.129 343.029 243.232C342.623 243.497 342.198 243.752 341.784 243.98C339.36 245.381 336.806 246.543 334.158 247.449L333.89 247.539C333.689 247.611 333.471 247.683 333.253 247.749C331.723 248.24 330.134 248.665 328.543 249.009C321.655 250.528 313.824 250.892 305.266 250.09C297.408 249.334 289.651 247.752 282.123 245.371C274.199 242.865 266.782 239.74 259.609 236.719C256.458 235.391 253.199 234.019 249.945 232.719C249.333 232.474 248.731 232.235 248.12 231.995C244.145 230.445 240.542 229.165 237.103 228.081C228.585 225.386 219.767 223.752 210.849 223.216C201.383 222.697 193.042 223.675 186.062 226.116C184.137 226.786 182.264 227.594 180.455 228.533C172.188 232.829 167.091 239.169 162.163 245.301C156.032 252.928 149.692 260.815 137.174 264.903C122.729 269.625 101.645 267.663 86.7274 264.252C82.0375 263.179 77.3533 261.945 72.823 260.751C70.9934 260.269 69.1624 259.79 67.3302 259.314C63.7297 258.384 60.7831 257.671 58.0569 257.07L57.1946 256.878C56.715 256.774 56.2349 256.669 55.7462 256.57C52.5081 255.89 49.4929 255.354 46.5235 254.933L45.821 254.831C44.4126 254.645 43.0958 254.491 41.8037 254.361L41.2879 254.309C38.7571 254.069 36.1381 253.948 33.5142 253.948Z" fill="#F2F2F2"/>
<path d="M423.934 264.092C434.558 254.512 450.36 249.695 463.615 255.067C450.018 262.621 439.53 274.743 434.005 289.29C431.895 294.908 430.133 301.376 424.942 304.384C421.713 306.256 417.695 306.347 414.074 305.444C410.453 304.54 407.134 302.729 403.86 300.936L402.929 300.915C407.11 287.23 413.31 273.671 423.934 264.092Z" fill="#E6E6E6"/>
<path d="M463.541 255.358C451.801 256.876 440.838 262.057 432.209 270.164C430.32 271.877 428.713 273.876 427.447 276.09C426.283 278.285 425.727 280.753 425.839 283.236C425.896 285.553 426.223 287.917 425.716 290.208C425.44 291.377 424.919 292.474 424.189 293.428C423.459 294.381 422.536 295.169 421.48 295.74C418.886 297.233 415.91 297.703 412.985 298.062C409.737 298.46 406.357 298.822 403.545 300.645C403.205 300.866 402.882 300.324 403.222 300.104C408.114 296.932 414.304 298.086 419.564 295.969C422.018 294.982 424.19 293.248 424.959 290.626C425.631 288.334 425.296 285.896 425.217 283.55C425.073 281.13 425.524 278.71 426.529 276.504C427.679 274.233 429.207 272.175 431.046 270.417C435.125 266.394 439.811 263.037 444.932 260.47C450.76 257.508 457.052 255.566 463.535 254.727C463.936 254.675 463.939 255.306 463.541 255.358Z" fill="white"/>
<path d="M434.834 267.39C433.671 265.757 433.126 263.763 433.297 261.765C433.468 259.766 434.342 257.894 435.765 256.481C436.054 256.197 436.51 256.633 436.221 256.918C434.893 258.23 434.079 259.975 433.923 261.836C433.768 263.697 434.283 265.552 435.375 267.067C435.612 267.396 435.069 267.718 434.834 267.39Z" fill="white"/>
<path d="M425.655 282.065C429.689 282.78 433.845 281.948 437.293 279.733C437.634 279.514 437.957 280.055 437.616 280.275C434.023 282.572 429.697 283.43 425.501 282.677C425.101 282.604 425.257 281.993 425.655 282.065Z" fill="white"/>
<path d="M450.812 258.343C451.13 259.069 451.623 259.704 452.248 260.192C452.872 260.68 453.608 261.005 454.389 261.138C454.789 261.205 454.632 261.816 454.234 261.75C453.372 261.599 452.56 261.239 451.869 260.701C451.178 260.164 450.629 259.465 450.27 258.667C450.23 258.594 450.219 258.509 450.239 258.429C450.26 258.348 450.31 258.279 450.379 258.234C450.451 258.192 450.537 258.179 450.618 258.2C450.699 258.22 450.768 258.272 450.812 258.343Z" fill="white"/>
<path d="M478.211 301.264C477.959 301.23 477.708 301.195 477.453 301.164C474.071 300.715 470.659 300.541 467.249 300.645C466.985 300.649 466.718 300.657 466.455 300.668C458.242 301.006 450.164 302.867 442.63 306.156C439.634 307.467 436.741 309.005 433.978 310.756C430.161 313.174 426.216 316.099 421.949 317.085C421.506 317.193 421.055 317.273 420.602 317.325L402.975 302.053C402.952 301.999 402.926 301.948 402.903 301.893L402.172 301.315C402.308 301.215 402.451 301.114 402.588 301.014C402.666 300.955 402.749 300.9 402.828 300.842C402.882 300.804 402.936 300.766 402.982 300.729C403 300.716 403.018 300.703 403.032 300.695C403.079 300.657 403.126 300.628 403.168 300.594C403.969 300.027 404.774 299.465 405.585 298.907C405.589 298.903 405.589 298.903 405.596 298.903C411.735 294.594 418.363 291.029 425.341 288.282C425.55 288.203 425.763 288.12 425.98 288.048C429.123 286.878 432.356 285.968 435.647 285.326C437.45 284.98 439.269 284.726 441.098 284.564C445.824 284.155 450.585 284.493 455.206 285.564C464.418 287.702 472.844 292.763 477.835 300.657C477.963 300.859 478.087 301.058 478.211 301.264Z" fill="#E6E6E6"/>
<path d="M477.977 301.454C467.691 295.593 455.82 293.125 444.052 294.4C441.513 294.629 439.027 295.258 436.684 296.262C434.434 297.314 432.506 298.95 431.101 300.999C429.752 302.884 428.591 304.968 426.808 306.492C425.884 307.259 424.808 307.821 423.651 308.143C422.495 308.464 421.283 308.537 420.096 308.357C417.128 307.986 414.469 306.569 411.917 305.093C409.084 303.454 406.167 301.707 402.826 301.469C402.421 301.44 402.489 300.813 402.893 300.842C408.708 301.256 412.956 305.907 418.429 307.386C420.983 308.076 423.76 308 425.951 306.37C427.867 304.944 429.067 302.796 430.415 300.876C431.757 298.856 433.572 297.196 435.703 296.04C437.987 294.92 440.445 294.197 442.971 293.902C448.649 293.147 454.41 293.29 460.043 294.325C466.479 295.471 472.671 297.711 478.352 300.947C478.704 301.147 478.327 301.653 477.977 301.454Z" fill="white"/>
<path d="M447.817 293.766C447.871 291.761 448.636 289.841 449.975 288.349C451.313 286.856 453.138 285.888 455.124 285.618C455.526 285.564 455.628 286.187 455.225 286.24C453.376 286.489 451.676 287.39 450.432 288.783C449.188 290.175 448.483 291.967 448.444 293.834C448.435 294.24 447.808 294.17 447.817 293.766Z" fill="white"/>
<path d="M431.659 299.953C434.449 302.955 438.268 304.794 442.354 305.103C442.758 305.133 442.69 305.76 442.286 305.73C438.035 305.4 434.065 303.479 431.168 300.349C430.892 300.05 431.384 299.657 431.659 299.953Z" fill="white"/>
<path d="M466.018 296.169C465.835 296.94 465.847 297.745 466.052 298.51C466.257 299.276 466.649 299.979 467.192 300.555C467.472 300.85 466.979 301.244 466.701 300.951C466.104 300.311 465.672 299.534 465.443 298.689C465.215 297.843 465.197 296.955 465.391 296.101C465.402 296.019 465.445 295.944 465.509 295.892C465.574 295.84 465.656 295.815 465.738 295.821C465.821 295.831 465.897 295.872 465.949 295.937C466.002 296.003 466.026 296.086 466.018 296.169Z" fill="white"/>
<path d="M145.824 273.619C154.523 260.416 170.085 250.865 185.755 252.92C173.313 264.784 165.466 280.67 163.601 297.766C162.906 304.362 162.82 311.771 158.105 316.432C155.171 319.333 150.899 320.549 146.775 320.591C142.651 320.633 138.598 319.62 134.598 318.613L133.596 318.85C134.264 303.05 137.125 286.822 145.824 273.619Z" fill="#E6E6E6"/>
<path d="M185.757 253.252C173.623 258.144 163.338 266.737 156.363 277.81C154.819 280.168 153.656 282.754 152.917 285.473C152.282 288.146 152.374 290.94 153.184 293.564C153.89 296.027 154.896 298.464 154.992 301.055C155.021 302.382 154.769 303.701 154.253 304.924C153.737 306.147 152.969 307.247 151.998 308.152C149.639 310.47 146.587 311.801 143.558 312.999C140.195 314.329 136.681 315.658 134.181 318.39C133.878 318.721 133.382 318.232 133.684 317.901C138.034 313.147 144.976 312.658 150.013 308.93C152.363 307.19 154.204 304.731 154.297 301.713C154.379 299.075 153.343 296.561 152.607 294.073C151.78 291.524 151.589 288.812 152.051 286.172C152.649 283.423 153.711 280.797 155.19 278.405C158.434 272.966 162.512 268.072 167.275 263.901C172.685 259.11 178.875 255.281 185.575 252.579C185.99 252.412 186.169 253.086 185.757 253.252Z" fill="white"/>
<path d="M158.399 274.112C156.701 272.689 155.564 270.708 155.191 268.524C154.818 266.339 155.233 264.093 156.362 262.186C156.592 261.801 157.201 262.14 156.971 262.526C155.916 264.299 155.529 266.392 155.881 268.425C156.233 270.459 157.299 272.3 158.888 273.616C159.233 273.902 158.742 274.397 158.399 274.112Z" fill="white"/>
<path d="M152.662 292.363C157.175 292.005 161.388 289.958 164.46 286.629C164.764 286.299 165.26 286.789 164.956 287.119C161.753 290.576 157.365 292.698 152.667 293.06C152.219 293.094 152.216 292.397 152.662 292.363Z" fill="white"/>
<path d="M172.972 259.989C173.515 260.676 174.219 261.218 175.022 261.566C175.826 261.914 176.703 262.057 177.575 261.982C178.022 261.942 178.025 262.639 177.58 262.679C176.616 262.758 175.648 262.599 174.759 262.216C173.871 261.834 173.089 261.239 172.483 260.485C172.42 260.419 172.385 260.331 172.384 260.239C172.384 260.148 172.418 260.06 172.48 259.992C172.545 259.927 172.633 259.89 172.725 259.889C172.818 259.888 172.906 259.924 172.972 259.989Z" fill="white"/>
<path d="M214.21 298.267C213.931 298.3 213.653 298.332 213.371 298.37C209.629 298.831 205.931 299.596 202.313 300.656C202.032 300.734 201.749 300.817 201.47 300.902C192.781 303.55 184.658 307.789 177.515 313.403C174.675 315.64 172.008 318.09 169.54 320.732C166.13 324.38 162.724 328.607 158.435 330.85C157.99 331.088 157.531 331.3 157.06 331.482L133.962 320.055C133.923 320.002 133.88 319.955 133.841 319.903L132.898 319.489C133.015 319.344 133.141 319.196 133.259 319.05C133.327 318.966 133.4 318.884 133.468 318.8C133.515 318.744 133.562 318.689 133.601 318.636C133.617 318.617 133.632 318.599 133.645 318.586C133.685 318.533 133.727 318.488 133.763 318.44C134.461 317.611 135.167 316.786 135.879 315.963C135.882 315.958 135.882 315.958 135.889 315.955C141.333 309.704 147.345 303.852 154.054 299.1C154.256 298.957 154.461 298.809 154.673 298.671C157.709 296.546 160.914 294.672 164.255 293.069C166.087 292.197 167.962 291.419 169.873 290.737C174.814 288.984 180 288.019 185.24 287.879C195.687 287.601 206.107 290.669 213.639 297.722C213.832 297.903 214.02 298.081 214.21 298.267Z" fill="#E6E6E6"/>
<path d="M214.013 298.534C201.381 295.13 187.999 295.795 175.767 300.434C173.116 301.386 170.632 302.75 168.405 304.477C166.29 306.228 164.683 308.514 163.75 311.098C162.832 313.489 162.169 316.042 160.686 318.168C159.911 319.245 158.917 320.146 157.769 320.812C156.621 321.477 155.346 321.893 154.027 322.031C150.748 322.46 147.511 321.685 144.371 320.816C140.885 319.852 137.28 318.796 133.64 319.471C133.199 319.553 133.098 318.863 133.538 318.782C139.872 317.606 145.708 321.398 151.973 321.456C154.897 321.483 157.846 320.628 159.736 318.275C161.389 316.217 162.074 313.586 162.983 311.157C163.856 308.623 165.336 306.342 167.294 304.513C169.425 302.679 171.853 301.221 174.473 300.202C180.336 297.814 186.537 296.363 192.85 295.903C200.052 295.337 207.297 296.008 214.273 297.888C214.704 298.004 214.442 298.65 214.013 298.534Z" fill="white"/>
<path d="M179.618 298.708C179.119 296.549 179.403 294.282 180.419 292.313C181.436 290.344 183.119 288.801 185.168 287.959C185.583 287.79 185.865 288.428 185.449 288.597C183.54 289.377 181.972 290.815 181.029 292.651C180.086 294.486 179.83 296.599 180.307 298.607C180.41 299.043 179.72 299.142 179.618 298.708Z" fill="white"/>
<path d="M164.056 309.824C167.876 312.257 172.471 313.161 176.926 312.354C177.368 312.274 177.469 312.964 177.028 313.044C172.39 313.874 167.61 312.924 163.641 310.384C163.263 310.141 163.68 309.583 164.056 309.824Z" fill="white"/>
<path d="M199.752 296.211C199.771 297.087 200.007 297.944 200.44 298.706C200.872 299.468 201.486 300.11 202.228 300.576C202.609 300.813 202.191 301.371 201.812 301.135C200.996 300.617 200.318 299.907 199.838 299.066C199.359 298.226 199.093 297.28 199.063 296.313C199.052 296.222 199.077 296.131 199.132 296.057C199.186 295.984 199.267 295.934 199.357 295.917C199.448 295.904 199.541 295.928 199.615 295.983C199.689 296.038 199.738 296.12 199.752 296.211Z" fill="white"/>
<path d="M207.736 174.631C208.313 174.057 208.758 173.362 209.038 172.597C209.318 171.832 209.427 171.015 209.357 170.203C209.287 169.392 209.041 168.605 208.634 167.899C208.228 167.193 207.672 166.585 207.005 166.117L216.096 122.088L206.288 125.185L198.973 167.779C198.262 168.952 198.006 170.345 198.253 171.694C198.5 173.043 199.233 174.255 200.313 175.1C201.393 175.945 202.745 176.363 204.114 176.277C205.482 176.191 206.771 175.605 207.736 174.631Z" fill="#FFB6B6"/>
<path d="M228.751 56.9408L222.675 52.3513C222.675 52.3513 217.315 51.9715 216.366 61.6438C215.416 71.3161 209.472 108.438 209.472 108.438L200.175 151.528L213.045 154.355L223.003 107.853L232.972 75.7716L228.751 56.9408Z" fill="#E6E6E6"/>
<path d="M224.122 136.673L194.976 113.996C194.522 113.642 194.227 113.122 194.156 112.551C194.084 111.979 194.242 111.403 194.595 110.948L214.425 85.4277C214.779 84.9734 215.299 84.6782 215.87 84.6067C216.441 84.5352 217.017 84.6933 217.472 85.0463L246.617 107.723C247.071 108.077 247.367 108.597 247.438 109.168C247.509 109.74 247.351 110.316 246.999 110.771L227.168 136.292C226.814 136.746 226.295 137.041 225.724 137.113C225.153 137.184 224.577 137.026 224.122 136.673Z" fill="#3F3D56"/>
<path d="M223.962 134.326L197.289 113.573C196.885 113.259 196.623 112.797 196.56 112.29C196.497 111.783 196.637 111.271 196.95 110.867L214.927 87.7316C215.241 87.3282 215.703 87.0661 216.21 87.0026C216.717 86.9391 217.228 87.0794 217.632 87.3928L244.305 108.146C244.708 108.46 244.97 108.922 245.034 109.429C245.097 109.937 244.957 110.449 244.644 110.853L226.667 133.988C226.352 134.391 225.891 134.653 225.384 134.717C224.877 134.78 224.366 134.64 223.962 134.326Z" fill="white"/>
<path d="M200.785 112.985C200.685 112.906 200.619 112.791 200.603 112.664C200.587 112.537 200.622 112.409 200.701 112.308L209.77 100.637C209.848 100.536 209.964 100.471 210.09 100.455C210.153 100.447 210.217 100.451 210.278 100.468C210.339 100.485 210.396 100.514 210.446 100.552C210.496 100.591 210.538 100.64 210.569 100.695C210.6 100.75 210.62 100.81 210.628 100.873C210.636 100.936 210.632 101 210.615 101.061C210.598 101.122 210.569 101.179 210.531 101.229L201.462 112.9C201.383 113.001 201.268 113.066 201.141 113.082C201.014 113.098 200.886 113.063 200.785 112.985Z" fill="#E4E4E4"/>
<path d="M202.288 114.154C202.188 114.076 202.122 113.96 202.106 113.833C202.09 113.707 202.126 113.579 202.204 113.478L211.273 101.807C211.351 101.706 211.467 101.64 211.593 101.624C211.72 101.608 211.848 101.643 211.949 101.722C212.05 101.8 212.115 101.916 212.131 102.043C212.147 102.17 212.112 102.298 212.034 102.399L202.965 114.07C202.886 114.17 202.771 114.236 202.644 114.252C202.517 114.268 202.389 114.233 202.288 114.154Z" fill="#E4E4E4"/>
<path d="M208.929 108.712C208.829 108.633 208.763 108.518 208.747 108.391C208.731 108.264 208.766 108.136 208.845 108.035L212.776 102.976C212.815 102.926 212.863 102.884 212.918 102.853C212.973 102.821 213.034 102.801 213.097 102.793C213.159 102.785 213.223 102.79 213.284 102.806C213.345 102.823 213.403 102.852 213.453 102.891C213.503 102.93 213.544 102.978 213.576 103.033C213.607 103.088 213.627 103.149 213.635 103.212C213.643 103.275 213.638 103.339 213.621 103.4C213.604 103.461 213.576 103.518 213.537 103.568L209.606 108.627C209.527 108.728 209.412 108.793 209.285 108.809C209.158 108.825 209.03 108.79 208.929 108.712Z" fill="#E4E4E4"/>
<path d="M210.956 118.64C210.855 118.561 210.79 118.446 210.774 118.319C210.758 118.192 210.793 118.064 210.871 117.963L225.188 99.5382C225.227 99.4882 225.276 99.4464 225.331 99.4151C225.386 99.3838 225.446 99.3636 225.509 99.3558C225.572 99.3479 225.635 99.3525 225.697 99.3693C225.758 99.3861 225.815 99.4147 225.865 99.4536C225.915 99.4924 225.956 99.5408 225.988 99.5958C226.019 99.6508 226.039 99.7115 226.047 99.7743C226.055 99.8371 226.05 99.9009 226.033 99.962C226.017 100.023 225.988 100.08 225.949 100.13L211.632 118.555C211.554 118.656 211.438 118.721 211.312 118.737C211.185 118.753 211.057 118.718 210.956 118.64Z" fill="#E4E4E4"/>
<path d="M212.459 119.809C212.358 119.731 212.293 119.615 212.277 119.488C212.261 119.361 212.296 119.234 212.374 119.132L226.691 100.708C226.73 100.658 226.779 100.616 226.834 100.584C226.889 100.553 226.949 100.533 227.012 100.525C227.075 100.517 227.139 100.522 227.2 100.539C227.261 100.555 227.318 100.584 227.368 100.623C227.418 100.662 227.459 100.71 227.491 100.765C227.522 100.82 227.542 100.881 227.55 100.944C227.558 101.007 227.553 101.07 227.537 101.131C227.52 101.192 227.491 101.25 227.452 101.3L213.135 119.724C213.057 119.825 212.941 119.891 212.815 119.907C212.688 119.923 212.56 119.887 212.459 119.809Z" fill="#E4E4E4"/>
<path d="M215.871 122.464C215.77 122.385 215.705 122.27 215.689 122.143C215.673 122.016 215.708 121.888 215.786 121.787L230.103 103.362C230.142 103.312 230.191 103.271 230.246 103.239C230.301 103.208 230.361 103.188 230.424 103.18C230.487 103.172 230.551 103.177 230.612 103.193C230.673 103.21 230.73 103.239 230.78 103.278C230.83 103.317 230.871 103.365 230.903 103.42C230.934 103.475 230.954 103.536 230.962 103.598C230.97 103.661 230.965 103.725 230.948 103.786C230.932 103.847 230.903 103.904 230.864 103.954L216.547 122.379C216.469 122.48 216.353 122.546 216.227 122.561C216.1 122.577 215.972 122.542 215.871 122.464Z" fill="#E4E4E4"/>
<path d="M217.374 123.633C217.273 123.555 217.208 123.439 217.192 123.312C217.176 123.186 217.211 123.058 217.289 122.957L231.607 104.532C231.645 104.482 231.694 104.44 231.749 104.409C231.804 104.377 231.864 104.357 231.927 104.349C231.99 104.341 232.054 104.346 232.115 104.363C232.176 104.38 232.233 104.408 232.283 104.447C232.333 104.486 232.374 104.534 232.406 104.589C232.437 104.644 232.457 104.705 232.465 104.768C232.473 104.831 232.468 104.894 232.452 104.956C232.435 105.017 232.406 105.074 232.367 105.124L218.05 123.549C217.972 123.649 217.856 123.715 217.73 123.731C217.603 123.747 217.475 123.712 217.374 123.633Z" fill="#E4E4E4"/>
<path d="M220.786 126.288C220.685 126.209 220.62 126.094 220.604 125.967C220.588 125.84 220.623 125.712 220.701 125.611L235.018 107.187C235.057 107.137 235.106 107.095 235.161 107.063C235.216 107.032 235.276 107.012 235.339 107.004C235.402 106.996 235.466 107.001 235.527 107.018C235.588 107.034 235.645 107.063 235.695 107.102C235.745 107.141 235.786 107.189 235.818 107.244C235.849 107.299 235.869 107.36 235.877 107.423C235.885 107.485 235.88 107.549 235.863 107.61C235.847 107.671 235.818 107.729 235.779 107.778L221.462 126.203C221.384 126.304 221.268 126.37 221.142 126.386C221.015 126.401 220.887 126.366 220.786 126.288Z" fill="#E4E4E4"/>
<path d="M222.289 127.457C222.188 127.379 222.123 127.264 222.107 127.137C222.091 127.01 222.126 126.882 222.204 126.781L236.522 108.356C236.6 108.256 236.715 108.19 236.842 108.175C236.969 108.159 237.096 108.194 237.197 108.273C237.297 108.351 237.363 108.466 237.379 108.593C237.395 108.719 237.36 108.847 237.282 108.948L222.965 127.373C222.887 127.474 222.771 127.539 222.645 127.555C222.518 127.571 222.39 127.536 222.289 127.457Z" fill="#E4E4E4"/>
<path d="M198.361 148.855C198.47 148.855 198.558 148.767 198.558 148.657C198.558 148.548 198.47 148.459 198.361 148.459C198.251 148.459 198.163 148.548 198.163 148.657C198.163 148.767 198.251 148.855 198.361 148.855Z" fill="white"/>
<path d="M227.189 12.4459C226.493 16.1871 225.352 19.8313 223.79 23.301C214.846 42.2338 240.317 36.0626 249.419 36.0626C259.371 36.0626 268.893 41.2992 267.439 18.0313C266.818 8.09231 259.371 0 249.419 0C240.918 0 228.967 3.78081 227.189 12.4459Z" fill="#2F2E41"/>
<path d="M258.696 290.122H250.216L246.181 257.396H258.696V290.122Z" fill="#FFB6B6"/>
<path d="M263.171 304.823H257.09L256.005 299.078L253.225 304.823H237.098C236.325 304.823 235.572 304.576 234.949 304.117C234.326 303.659 233.866 303.013 233.636 302.275C233.406 301.536 233.418 300.743 233.67 300.012C233.922 299.281 234.401 298.649 235.038 298.21L247.917 289.309V283.502L261.463 284.311L263.171 304.823Z" fill="#2F2E41"/>
<path d="M309.07 279.414L302.266 284.478L279.513 260.626L289.555 253.153L309.07 279.414Z" fill="#FFB6B6"/>
<path d="M321.428 288.539L316.549 292.17L312.252 288.208L313.447 294.478L300.505 304.107C299.885 304.569 299.134 304.82 298.36 304.824C297.587 304.828 296.833 304.585 296.208 304.129C295.583 303.674 295.12 303.031 294.886 302.293C294.653 301.556 294.66 300.763 294.909 300.031L299.936 285.199L296.473 280.538L307.826 273.099L321.428 288.539Z" fill="#2F2E41"/>
<path d="M230.925 139.505L271.176 133.232L263.171 109.137H230.925V139.505Z" fill="#FFB6B6"/>
<path d="M268.567 121.272C268.567 121.272 284.655 135.181 277.233 174.829L268.171 213.678L292.86 256.57L280.306 263.422L249.88 221.108L235.958 188.429L228.594 131.155L268.567 121.272Z" fill="#2F2E41"/>
<path d="M243.632 197.742L242.664 212.737L245.497 257.142L259.56 261.987L262.223 216.49L243.632 197.742Z" fill="#2F2E41"/>
<path d="M239.308 41.0532L254.867 41.6606L261.068 51.9602L275.215 54.7238L266.769 97.4771L268.322 121.812L254.236 121.726C244.083 121.664 234.266 125.355 226.665 132.09L227.087 100.502L221.028 76.9214L222.39 52.1959L233.77 50.7724L239.308 41.0532Z" fill="#E6E6E6"/>
<path d="M247.928 36.0582C256.015 36.0582 262.571 29.4981 262.571 21.4057C262.571 13.3134 256.015 6.75323 247.928 6.75323C239.841 6.75323 233.285 13.3134 233.285 21.4057C233.285 29.4981 239.841 36.0582 247.928 36.0582Z" fill="#FFB6B6"/>
<path d="M237.984 6.46953C240.55 4.90425 243.489 4.05752 246.494 4.01788C249.499 3.97824 252.459 4.74715 255.065 6.2442C257.672 7.74125 259.828 9.91146 261.309 12.5279C262.79 15.1444 263.542 18.111 263.485 21.1175C256.024 22.992 248.185 24.4266 240.228 21.5659L238.349 16.9639L237.241 21.5693C234.818 22.5604 232.388 23.3989 229.959 21.5597C229.86 18.5616 230.549 15.59 231.957 12.9419C233.365 10.2938 235.443 8.062 237.984 6.46953Z" fill="#2F2E41"/>
<path d="M272.507 151.353L274.481 169.278C274.618 169.726 274.895 170.117 275.271 170.395C275.648 170.673 276.103 170.823 276.571 170.823H285.67C286.137 170.823 286.593 170.673 286.969 170.395C287.345 170.117 287.622 169.726 287.76 169.278L289.395 155.539C289.867 155.771 290.387 155.887 290.912 155.878C291.438 155.869 291.954 155.736 292.417 155.489C292.881 155.242 293.28 154.888 293.581 154.456C293.881 154.025 294.075 153.528 294.147 153.007C294.218 152.486 294.165 151.955 293.991 151.459C293.818 150.963 293.529 150.514 293.149 150.151C292.768 149.788 292.307 149.521 291.804 149.371C291.3 149.221 290.768 149.193 290.251 149.289C290.047 149.048 289.793 148.854 289.506 148.721C289.22 148.589 288.908 148.521 288.592 148.521H274.597C274.255 148.521 273.917 148.602 273.612 148.756C273.306 148.91 273.041 149.134 272.838 149.409C272.635 149.685 272.499 150.004 272.441 150.342C272.384 150.679 272.406 151.026 272.507 151.353ZM289.68 154.61L290.682 151.353C290.798 150.977 290.809 150.577 290.715 150.195C290.758 150.192 290.798 150.182 290.841 150.182C291.47 150.182 292.073 150.432 292.518 150.877C292.963 151.322 293.212 151.925 293.212 152.555C293.212 153.184 292.963 153.787 292.518 154.232C292.073 154.677 291.47 154.927 290.841 154.927C290.433 154.925 290.033 154.815 289.68 154.61Z" fill="#6C63FF"/>
<path d="M286.227 170.835C285.653 170.258 285.212 169.561 284.936 168.795C284.66 168.028 284.555 167.211 284.629 166.399C284.703 165.588 284.954 164.802 285.363 164.098C285.773 163.395 286.333 162.789 287.002 162.325L278.134 118.25L287.927 121.397L295.025 164.028C295.73 165.204 295.979 166.598 295.725 167.947C295.472 169.295 294.732 170.503 293.648 171.342C292.564 172.181 291.209 172.593 289.842 172.499C288.474 172.406 287.188 171.814 286.227 170.835Z" fill="#FFB6B6"/>
<path d="M269.139 59.3133L275.215 54.7239C275.215 54.7239 280.575 54.3441 281.524 64.0164C282.473 73.6887 288.417 110.811 288.417 110.811L297.715 153.901L284.845 156.728L274.886 110.226L264.918 78.1442L269.139 59.3133Z" fill="#E6E6E6"/>
<path d="M216.699 99.4343C218.599 99.4343 220.138 97.8935 220.138 95.9927C220.138 94.0919 218.599 92.551 216.699 92.551C214.799 92.551 213.26 94.0919 213.26 95.9927C213.26 97.8935 214.799 99.4343 216.699 99.4343Z" fill="#6C63FF"/>
<path d="M107.021 330.048L114.189 330.047L117.599 302.382L107.02 302.383L107.021 330.048Z" fill="#FFB6B6"/>
<path d="M105.193 327.706L107.211 327.706L115.087 324.5L119.309 327.705C121.695 327.705 123.984 328.654 125.671 330.342C127.358 332.03 128.305 334.319 128.306 336.707V336.999L105.194 337L105.193 327.706Z" fill="#2F2E41"/>
<path d="M134.798 325.528L141.79 327.108L151.206 300.874L140.887 298.542L134.798 325.528Z" fill="#FFB6B6"/>
<path d="M133.53 322.84L135.498 323.285L143.887 321.895L147.3 325.951L147.3 325.951C149.627 326.477 151.65 327.907 152.924 329.925C154.198 331.944 154.619 334.386 154.094 336.715L154.029 337L131.485 331.907L133.53 322.84Z" fill="#2F2E41"/>
<path d="M93.8993 187.743L100.381 260.409C100.381 260.409 97.9524 304.035 105.789 319.387H117.154L122.782 256.425L123.488 214.165L147.854 249.819L132.335 318.357L146.323 319.609L171.507 245.228L143.839 175.402L93.8993 187.743Z" fill="#2F2E41"/>
<path d="M100.688 72.0225C109.92 72.0225 117.404 64.5337 117.404 55.2959C117.404 46.058 109.92 38.5693 100.688 38.5693C91.4557 38.5693 83.9718 46.058 83.9718 55.2959C83.9718 64.5337 91.4557 72.0225 100.688 72.0225Z" fill="#FFB8B8"/>
<path d="M130.073 87.9621L116.359 82.0743L109.683 74.9889L93.0063 77.6803L88.5815 85.272L74.2577 98.5996L91.0397 174.529L90.5317 191.112C90.5317 191.112 101.273 195.951 147.854 184.811C148.413 184.677 147.244 184.092 147.244 184.092L130.073 87.9621Z" fill="#3F3D56"/>
<path d="M83.3057 64.7869C83.1893 64.6279 83.0739 64.4675 82.9597 64.3058C82.9138 64.4029 82.8772 64.5032 82.8247 64.5981L83.3057 64.7869Z" fill="#2F2E41"/>
<path d="M117.315 43.0611C116.198 40.6254 114.206 38.6995 111.735 37.6662C109.285 36.6776 106.548 36.68 104.1 37.6728C101.89 36.2757 99.4349 35.1682 96.849 35.031C94.2632 34.8938 91.5291 35.8537 89.9356 37.9669C89.5797 38.5247 89.1756 39.0501 88.7278 39.537C87.4468 40.724 85.5002 40.5528 83.7976 40.3101C84.5612 40.965 85.3251 41.6199 86.0891 42.2749C85.1647 42.5165 84.2402 42.7581 83.3157 42.9998C84.3945 43.6545 85.4732 44.3092 86.5518 44.9639C83.4202 46.8448 81.9968 50.9501 82.3727 54.6787C82.7284 58.2087 84.4316 61.4367 86.4676 64.3058C87.2798 62.5907 87.1048 60.5386 87.0914 58.607C87.0774 56.566 87.4383 54.2484 89.0726 53.1078C90.1751 52.3384 91.5928 52.304 92.9223 52.3113C99.6284 52.3481 106.327 52.7666 112.986 53.5647C113.889 53.6038 114.77 53.8595 115.554 54.3102C117.027 55.3154 117.314 57.3898 117.462 59.2097C118.24 56.2048 118.62 53.1107 118.594 50.0067C118.66 47.6273 118.224 45.2609 117.315 43.0611Z" fill="#2F2E41"/>
<path d="M122.52 238.683C137.05 238.683 148.829 226.896 148.829 212.356C148.829 197.816 137.05 186.029 122.52 186.029C107.989 186.029 96.2101 197.816 96.2101 212.356C96.2101 226.896 107.989 238.683 122.52 238.683Z" fill="white"/>
<path d="M122.52 185.444C121.167 185.445 119.817 185.546 118.48 185.749C117.796 185.848 117.129 185.977 116.469 186.135C111.615 187.254 107.167 189.701 103.623 193.203C100.078 196.704 97.5748 201.122 96.393 205.964C95.2113 210.806 95.3971 215.881 96.9299 220.623C98.4627 225.365 101.282 229.588 105.074 232.82C105.524 233.201 105.98 233.569 106.453 233.92C109.867 236.467 113.835 238.166 118.033 238.878C122.231 239.59 126.538 239.294 130.599 238.015C134.66 236.735 138.359 234.51 141.393 231.52C144.426 228.531 146.707 224.863 148.047 220.82C149.387 216.776 149.749 212.472 149.102 208.261C148.455 204.05 146.817 200.053 144.325 196.599C141.833 193.145 138.556 190.333 134.765 188.394C130.974 186.454 126.777 185.443 122.52 185.444ZM122.52 238.098C117.05 238.103 111.722 236.354 107.319 233.107C106.839 232.756 106.377 232.393 105.927 232.007C102.233 228.889 99.4924 224.792 98.0189 220.187C96.5455 215.581 96.3991 210.653 97.5966 205.968C98.7942 201.283 101.287 197.031 104.789 193.699C108.292 190.367 112.662 188.09 117.398 187.129C118.053 186.995 118.708 186.889 119.374 186.808C120.418 186.678 121.468 186.614 122.52 186.614C129.342 186.614 135.886 189.327 140.71 194.154C145.534 198.981 148.245 205.529 148.245 212.356C148.245 219.183 145.534 225.731 140.71 230.558C135.886 235.385 129.342 238.098 122.52 238.098Z" fill="#3F3D56"/>
<path d="M109.615 207.091H135.424C136.37 207.091 137.136 206.324 137.136 205.378V205.293C137.136 204.347 136.37 203.58 135.424 203.58H109.615C108.67 203.58 107.903 204.347 107.903 205.293V205.378C107.903 206.324 108.67 207.091 109.615 207.091Z" fill="#6C63FF"/>
<path d="M109.615 214.111H135.424C136.37 214.111 137.136 213.344 137.136 212.398V212.314C137.136 211.368 136.37 210.601 135.424 210.601H109.615C108.67 210.601 107.903 211.368 107.903 212.314V212.398C107.903 213.344 108.67 214.111 109.615 214.111Z" fill="#6C63FF"/>
<path d="M109.615 221.132H135.424C136.37 221.132 137.136 220.365 137.136 219.418V219.334C137.136 218.388 136.37 217.621 135.424 217.621H109.615C108.67 217.621 107.903 218.388 107.903 219.334V219.418C107.903 220.365 108.67 221.132 109.615 221.132Z" fill="#6C63FF"/>
<path d="M416.867 329.155L409.351 329.154L405.775 300.146L416.868 300.146L416.867 329.155Z" fill="#9E616A"/>
<path d="M381.309 329.155L373.794 329.154L370.218 300.146L381.311 300.146L381.309 329.155Z" fill="#9E616A"/>
<path d="M381.574 337L358.462 336.999V336.707C358.462 334.319 359.41 332.03 361.097 330.342C362.784 328.654 365.072 327.705 367.458 327.705H367.459L371.68 324.5L379.557 327.706L381.575 327.706L381.574 337Z" fill="#2F2E41"/>
<path d="M418.095 337L394.983 336.999V336.707C394.984 334.319 395.931 332.03 397.618 330.342C399.305 328.654 401.593 327.705 403.979 327.705H403.98L408.202 324.5L416.078 327.706L418.096 327.706L418.095 337Z" fill="#2F2E41"/>
<path d="M373.937 157.473L362.515 227.07L365.623 237.441L361.544 244.786L367.534 309.293L365.103 314.65L371.897 318.843H385.721L386.455 260.444L389.87 251.87V247.144L396.821 211.534L398.101 261.404L400.123 269.992L398.425 276.106L400.644 280.39L406.54 320.115H422.041L420.842 310.873C422.193 310.189 423.278 309.075 423.926 307.707C424.575 306.339 424.751 304.794 424.426 303.314L423.538 299.264L425.56 287.286L429.244 220.464L428.206 166.547L410.071 152.672L373.937 157.473Z" fill="#2F2E41"/>
<path d="M400.123 68.1016C408.078 68.1016 414.526 61.6493 414.526 53.6899C414.526 45.7306 408.078 39.2783 400.123 39.2783C392.169 39.2783 385.721 45.7306 385.721 53.6899C385.721 61.6493 392.169 68.1016 400.123 68.1016Z" fill="#9E616A"/>
<path d="M368.656 185.091C369.283 184.443 369.76 183.665 370.054 182.813C370.348 181.96 370.451 181.053 370.357 180.157C370.263 179.26 369.974 178.394 369.509 177.622C369.045 176.849 368.416 176.187 367.669 175.684L373.269 154.491L362.479 158.122L358.815 177.691C358.053 179.004 357.798 180.551 358.1 182.039C358.401 183.527 359.238 184.852 360.451 185.765C361.664 186.677 363.169 187.112 364.681 186.988C366.194 186.864 367.608 186.189 368.656 185.091Z" fill="#9E616A"/>
<path d="M374.55 83.3397L372.234 82.8588L370.259 83.9531C370.259 83.9531 364.741 91.3145 364.741 98.0624C364.741 104.81 357.998 169.836 357.998 169.836L370.259 175.357L380.067 124.441L374.55 83.3397Z" fill="#E6E6E6"/>
<path d="M412.736 43.1236C412.736 43.1236 416.503 35.9178 408.216 35.2627C408.216 35.2627 401.151 28.8497 393.949 34.0903C393.949 34.0903 390.021 34.0903 387.874 38.5381C387.874 38.5381 384.784 37.3657 384.105 40.5033C384.105 40.5033 381.845 47.054 384.105 52.9497C386.366 58.8454 387.117 59.5005 387.117 59.5005C387.117 59.5005 383.402 47.1399 392.444 46.4848C401.485 45.8297 411.603 40.1758 412.356 47.3816C413.11 54.5874 414.244 56.3628 414.244 56.3628C414.244 56.3628 421.4 46.0714 412.736 43.1236Z" fill="#2F2E41"/>
<path d="M465.347 244.786C464.26 244.788 463.211 244.387 462.401 243.661L418.815 204.838C417.936 204.054 417.405 202.953 417.336 201.777C417.268 200.601 417.669 199.446 418.45 198.566L446.372 167.178C447.156 166.299 448.256 165.767 449.431 165.699C450.606 165.63 451.76 166.031 452.64 166.814L496.227 205.638C497.106 206.421 497.639 207.522 497.707 208.698C497.775 209.874 497.374 211.03 496.591 211.91L468.669 243.297C468.283 243.734 467.813 244.09 467.288 244.344C466.763 244.599 466.193 244.746 465.61 244.778C465.522 244.784 465.435 244.786 465.347 244.786Z" fill="white"/>
<path d="M465.346 245.072C464.19 245.073 463.073 244.647 462.211 243.875L418.625 205.051C417.69 204.217 417.124 203.045 417.052 201.794C416.979 200.542 417.405 199.313 418.237 198.375L446.159 166.988C446.993 166.053 448.164 165.487 449.414 165.414C450.665 165.341 451.893 165.768 452.83 166.6L496.417 205.424C497.353 206.258 497.919 207.43 497.992 208.682C498.065 209.934 497.637 211.163 496.804 212.1L468.882 243.487C468.471 243.952 467.971 244.331 467.412 244.602C466.854 244.872 466.247 245.029 465.627 245.064C465.533 245.069 465.44 245.072 465.346 245.072ZM449.69 166.547C449.184 166.546 448.684 166.653 448.222 166.86C447.76 167.067 447.348 167.369 447.011 167.748L419.09 199.135C418.459 199.846 418.135 200.778 418.19 201.727C418.246 202.677 418.675 203.565 419.384 204.198L462.97 243.022C463.322 243.335 463.731 243.576 464.176 243.731C464.62 243.885 465.091 243.951 465.561 243.924C466.031 243.896 466.491 243.776 466.914 243.571C467.338 243.366 467.717 243.079 468.03 242.727L495.952 211.34C496.584 210.63 496.908 209.697 496.853 208.748C496.797 207.799 496.368 206.91 495.658 206.278L452.071 167.453C451.416 166.869 450.568 166.546 449.69 166.547Z" fill="#3F3D56"/>
<path d="M481.152 215.061C480.682 215.061 480.227 214.889 479.876 214.575L445.662 184.1C445.473 183.932 445.319 183.729 445.208 183.501C445.097 183.274 445.032 183.027 445.017 182.774C445.002 182.522 445.037 182.269 445.12 182.03C445.203 181.791 445.332 181.57 445.5 181.381C445.668 181.192 445.872 181.038 446.1 180.928C446.327 180.818 446.574 180.754 446.827 180.74C447.079 180.726 447.332 180.762 447.571 180.845C447.809 180.929 448.029 181.059 448.217 181.228L482.431 211.703C482.722 211.962 482.927 212.304 483.02 212.683C483.112 213.061 483.088 213.459 482.949 213.823C482.81 214.188 482.564 214.501 482.243 214.722C481.922 214.943 481.542 215.061 481.152 215.061Z" fill="#6C63FF"/>
<path d="M474.626 222.396C474.156 222.397 473.701 222.224 473.35 221.911L439.136 191.435C438.948 191.267 438.795 191.064 438.685 190.837C438.575 190.609 438.511 190.363 438.496 190.111C438.482 189.859 438.517 189.606 438.6 189.368C438.682 189.13 438.811 188.91 438.979 188.721C439.147 188.533 439.35 188.379 439.577 188.269C439.804 188.159 440.051 188.095 440.303 188.081C440.555 188.066 440.807 188.101 441.045 188.184C441.283 188.267 441.503 188.396 441.691 188.564L475.905 219.039C476.196 219.298 476.402 219.64 476.494 220.019C476.587 220.397 476.562 220.795 476.423 221.159C476.284 221.523 476.038 221.837 475.717 222.058C475.396 222.279 475.016 222.397 474.626 222.396Z" fill="#6C63FF"/>
<path d="M468.1 229.733C467.63 229.734 467.175 229.561 466.824 229.247L432.61 198.772C432.421 198.604 432.267 198.401 432.157 198.173C432.047 197.946 431.983 197.699 431.968 197.447C431.953 197.195 431.988 196.942 432.071 196.703C432.154 196.465 432.283 196.245 432.451 196.056C432.619 195.867 432.822 195.714 433.05 195.604C433.277 195.494 433.524 195.43 433.776 195.415C434.028 195.401 434.28 195.436 434.519 195.519C434.757 195.602 434.977 195.732 435.165 195.9L469.379 226.376C469.67 226.635 469.875 226.976 469.968 227.355C470.06 227.733 470.036 228.131 469.897 228.495C469.758 228.86 469.512 229.173 469.191 229.394C468.87 229.615 468.49 229.733 468.1 229.733Z" fill="#6C63FF"/>
<path d="M428.974 186.342C428.535 185.554 428.274 184.68 428.209 183.78C428.144 182.881 428.277 181.978 428.599 181.136C428.921 180.293 429.423 179.531 430.07 178.904C430.718 178.277 431.495 177.799 432.347 177.505L432.384 155.584L441.877 161.871L440.386 181.724C440.786 183.189 440.634 184.75 439.96 186.11C439.286 187.47 438.137 188.536 436.73 189.105C435.323 189.674 433.757 189.707 432.327 189.198C430.898 188.689 429.705 187.672 428.974 186.342Z" fill="#9E616A"/>
<path d="M429.852 89.3468L434.093 85.2563L437.208 87.5065C437.208 87.5065 440.274 91.1871 442.726 102.229C445.178 113.271 442.726 174.002 442.726 174.002L429.239 172.162L431.078 140.263L425.56 113.271L429.852 89.3468Z" fill="#E6E6E6"/>
<path d="M436.114 86.2541L421.826 79.4244L412.125 70.4207L394.435 70.2883L388.728 77.7114L373.663 82.8321L376.174 134.812L374.462 138.81C374.462 138.81 375.655 139.888 376.2 140.491C376.745 141.094 375.447 146.142 375.447 146.142L374.715 151.634L376.745 153.085L374.106 156.204L373.451 161.12C373.451 161.12 419.511 149.664 428.214 168.642C428.673 169.644 427.541 159.845 427.541 159.845L426.409 152.672L427.532 146.233L429.244 144.52L426.373 141.647L428.214 128.014L436.114 86.2541Z" fill="#3F3D56"/>
<path d="M112.08 201.49C112.435 200.589 112.588 199.622 112.528 198.655C112.468 197.689 112.198 196.747 111.735 195.897C111.272 195.046 110.629 194.307 109.85 193.733C109.071 193.158 108.176 192.761 107.228 192.57L104.053 169.248L94.8505 177.298L99.2755 198.211C99.0603 199.827 99.445 201.465 100.357 202.817C101.268 204.168 102.644 205.137 104.222 205.542C105.8 205.946 107.472 205.757 108.92 205.01C110.369 204.263 111.493 203.011 112.08 201.49Z" fill="#FFB8B8"/>
<path d="M76.0238 98.173L73.5293 98.6512L72.0215 100.551C72.0215 100.551 69.5822 110.124 72.361 116.815C75.1397 123.506 95.2302 190.759 95.2302 190.759L109.661 191.178L98.4194 136.65L76.0238 98.173Z" fill="#3F3D56"/>
<path d="M132.912 198.069C132.248 197.365 131.745 196.525 131.44 195.605C131.136 194.686 131.036 193.712 131.148 192.75C131.261 191.788 131.582 190.863 132.091 190.039C132.599 189.215 133.282 188.513 134.091 187.982L128.346 165.157L139.885 169.193L143.572 190.249C144.373 191.668 144.627 193.332 144.285 194.926C143.942 196.52 143.027 197.932 141.713 198.896C140.399 199.86 138.778 200.309 137.156 200.156C135.534 200.004 134.024 199.261 132.912 198.069Z" fill="#FFB8B8"/>
<path d="M127.871 88.7498L130.364 88.2628L132.471 89.4628C132.471 89.4628 138.301 97.4361 138.216 104.681C138.131 111.926 144.549 181.825 144.549 181.825L131.315 187.598L121.427 132.808L127.871 88.7498Z" fill="#3F3D56"/>
</g>
<defs>
<clipPath id="clip0_444_3258">
<rect width="498" height="337" fill="white"/>
</clipPath>
</defs>
</svg>
