<svg width="508" height="439" viewBox="0 0 508 439" fill="none" xmlns="http://www.w3.org/2000/svg">
<g clip-path="url(#clip0_444_3344)">
<path d="M195.811 135.695C195.829 145.614 198.795 155.306 204.333 163.543C209.872 171.781 217.735 178.195 226.928 181.975C236.121 185.754 246.232 186.73 255.98 184.777C265.729 182.825 274.679 178.032 281.697 171.006C288.715 163.98 293.488 155.035 295.41 145.303C297.333 135.571 296.319 125.489 292.498 116.332C288.676 107.175 282.219 99.3535 273.941 93.8574C265.664 88.3612 255.939 85.4371 245.996 85.4547C239.389 85.4493 232.846 86.7464 226.743 89.2715C220.641 91.7966 215.098 95.4999 210.435 100.169C205.771 104.837 202.079 110.379 199.569 116.476C197.059 122.573 195.782 129.105 195.811 135.695Z" fill="#F2F2F2"/>
<path d="M112.14 164.93L105.071 151.465C111.41 143.829 132.207 134.568 132.207 134.568L160.355 109.01C160.655 107.87 161.25 106.828 162.082 105.991C162.913 105.153 163.951 104.549 165.091 104.238C166.231 103.928 167.433 103.923 168.576 104.223C169.719 104.524 170.762 105.119 171.601 105.95C172.439 106.78 173.044 107.816 173.354 108.954C173.663 110.092 173.667 111.29 173.364 112.43C173.062 113.57 172.464 114.61 171.63 115.445C170.797 116.281 169.758 116.883 168.617 117.19L138.207 153.573L112.14 164.93Z" fill="#9E616A"/>
<path d="M115.564 164.001L105.583 167.171C98.3242 169.477 90.5027 169.303 83.3545 166.678C81.1922 165.875 79.2981 164.484 77.8864 162.664C76.4747 160.843 75.6015 158.665 75.3655 156.375C75.0667 153.269 75.9612 150.166 77.8683 147.693C79.7753 145.22 82.5526 143.561 85.6386 143.053C94.9988 141.518 107.06 140.762 111.362 145.869L111.406 145.921L115.564 164.001Z" fill="#3F3D56"/>
<path d="M187.357 205.221C159.592 205.221 137.083 182.768 137.083 155.07C137.083 127.371 159.592 104.918 187.357 104.918C215.123 104.918 237.631 127.371 237.631 155.07C237.631 182.768 215.123 205.221 187.357 205.221Z" fill="white"/>
<path d="M207.875 135.453C208.565 139.151 209.696 142.753 211.245 146.183C220.113 164.899 194.858 158.798 185.832 158.798C175.964 158.798 166.523 163.975 167.965 140.974C168.581 131.149 175.964 123.15 185.832 123.15C194.261 123.15 206.112 126.887 207.875 135.453Z" fill="#2F2E41"/>
<path d="M187.311 158.794C179.292 158.794 172.791 152.309 172.791 144.31C172.791 136.31 179.292 129.826 187.311 129.826C195.33 129.826 201.83 136.31 201.83 144.31C201.83 152.309 195.33 158.794 187.311 158.794Z" fill="#FFB6B6"/>
<path d="M197.171 129.545C194.627 127.998 191.713 127.161 188.733 127.122C185.754 127.082 182.818 127.843 180.234 129.322C177.65 130.802 175.511 132.948 174.043 135.534C172.574 138.12 171.829 141.053 171.885 144.025C179.284 145.878 187.056 147.296 194.946 144.468L196.809 139.919L197.908 144.472C200.31 145.451 202.719 146.28 205.128 144.462C205.227 141.498 204.544 138.561 203.147 135.943C201.751 133.326 199.69 131.119 197.171 129.545Z" fill="#2F2E41"/>
<path d="M148.267 188.417C156.976 198.304 169.234 204.377 182.394 205.326C195.553 206.274 208.559 202.023 218.603 193.488L214.291 181.485C213.317 179.353 211.779 177.526 209.843 176.2C207.906 174.874 205.645 174.098 203.3 173.956L200.557 173.788L194.016 168.16C194.016 168.16 176.391 167.533 176.652 167.232L165.976 173.638L165.985 173.594L161.788 173.85C159.443 173.991 157.181 174.767 155.245 176.093C153.309 177.419 151.771 179.247 150.797 181.379L148.267 188.417Z" fill="#6C63FF"/>
<path d="M191.768 395.072L193.017 377.74C201.2 373.659 210.258 371.633 219.404 371.837C206.537 381.759 207.567 401.589 198.656 415.161C195.844 419.372 192.118 422.899 187.754 425.478C183.391 428.058 178.501 429.625 173.447 430.064L162.739 436.21C161.514 428.133 162.058 419.887 164.335 412.041C166.613 404.194 170.568 396.933 175.929 390.758C178.971 387.324 182.434 384.285 186.237 381.714C188.578 388.419 191.768 395.072 191.768 395.072Z" fill="white"/>
<path d="M486.265 87.8577L487.514 70.5253C495.697 66.4446 504.755 64.4183 513.901 64.6223C501.034 74.5442 502.064 94.3747 493.153 107.946C490.341 112.158 486.615 115.684 482.251 118.264C477.888 120.844 472.998 122.411 467.944 122.849L457.236 128.995C456.011 120.918 456.555 112.673 458.832 104.826C461.11 96.9795 465.065 89.7187 470.426 83.5438C473.468 80.1095 476.931 77.071 480.734 74.4999C483.075 81.204 486.265 87.8577 486.265 87.8577Z" fill="white"/>
<path d="M144.921 430.35L153.275 430.349L157.249 398.208H144.92L144.921 430.35Z" fill="#9E616A"/>
<path d="M142.791 438.427L169.725 438.426V438.086C169.725 435.313 168.621 432.653 166.655 430.692C164.689 428.73 162.022 427.629 159.242 427.628H159.241L154.321 423.905L145.142 427.629L142.791 427.629L142.791 438.427Z" fill="#2F2E41"/>
<path d="M71.3021 430.35L79.6549 430.349L83.6288 398.208H71.3002L71.3021 430.35Z" fill="#9E616A"/>
<path d="M69.1715 438.427L96.1056 438.426V438.086C96.1054 435.313 95.0008 432.653 93.0348 430.692C91.0688 428.73 88.4024 427.629 85.6221 427.628H85.6214L80.7016 423.905L71.5222 427.629L69.171 427.629L69.1715 438.427Z" fill="#2F2E41"/>
<path d="M84.0066 258.328L76.9809 324.91C76.9809 324.91 67.6281 391.578 69.3845 400.777C71.141 409.976 68.9454 411.29 68.9454 411.29L84.9721 410.151C84.9721 410.151 84.533 404.457 87.1676 401.829C89.8023 399.2 88.4849 391.316 88.4849 391.316L119.574 282.858L138.456 339.804C138.456 339.804 141.53 402.444 141.969 403.32C142.408 404.196 143.725 416.023 143.725 416.023H159.972C159.972 416.023 157.777 409.014 160.851 406.824C163.924 404.634 166.559 406.386 163.924 402.444C161.29 398.501 160.411 393.683 161.29 391.493C162.168 389.302 162.168 380.542 162.168 380.542C162.168 380.542 160.851 262.27 153.386 258.328C145.921 254.385 84.0066 258.328 84.0066 258.328Z" fill="#2F2E41"/>
<path d="M117.279 123.515C107.735 123.515 99.9985 115.797 99.9985 106.277C99.9985 96.7563 107.735 89.0385 117.279 89.0385C126.823 89.0385 134.559 96.7563 134.559 106.277C134.559 115.797 126.823 123.515 117.279 123.515Z" fill="#9E616A"/>
<path d="M78.0344 265.585C111.5 272.479 155.849 260.626 155.849 260.626L144.018 209.468L148.224 155.93C148.738 149.383 145 143.245 139.184 141.071L131.155 138.07L124.518 128.591L105.559 129.212L97.9802 139.163L91.9994 142.329L79.0331 149.189L78.976 149.218V149.246L83.0451 188.62L85.4991 212.36C85.4991 212.36 78.0458 239.06 79.5753 242.602C81.1047 246.137 79.775 244.429 79.4041 246.319C79.0332 248.209 77.8975 248.329 77.7263 252.052C77.5493 255.77 78.0344 265.585 78.0344 265.585Z" fill="#3F3D56"/>
<path d="M37.579 439H296.085C296.238 438.999 296.385 438.938 296.493 438.83C296.602 438.722 296.662 438.575 296.662 438.422C296.662 438.27 296.602 438.123 296.493 438.015C296.385 437.906 296.238 437.845 296.085 437.845H37.579C37.4254 437.845 37.2782 437.906 37.1696 438.014C37.061 438.122 37 438.269 37 438.422C37 438.576 37.061 438.723 37.1696 438.831C37.2782 438.939 37.4254 439 37.579 439Z" fill="#CCCCCC"/>
<path d="M118.12 122.687C115.089 122.656 112.066 122.367 109.085 121.823C106.133 121.145 99.6207 116.121 97.8458 113.153C96.5272 110.948 95.7358 107.538 95.3039 105.065C94.7208 101.793 94.8332 98.4347 95.6337 95.2084C96.4343 91.982 97.9052 88.9594 99.9512 86.3362C100.74 85.2372 101.812 84.3714 103.053 83.8302C103.163 83.7906 103.276 83.7559 103.39 83.7266C105.189 83.3035 106.821 82.3535 108.076 80.9985C108.319 80.7242 108.582 80.4677 108.863 80.2311C110.27 79.1072 111.924 78.3314 113.689 77.9672C116.541 77.2839 120.621 78.1401 125.814 80.5142C128.424 81.7069 131.32 81.3742 133.552 80.951C133.677 80.9302 133.806 80.9425 133.924 80.9866C134.043 81.0307 134.149 81.1051 134.23 81.2023C135.151 82.1111 136.384 82.6383 137.679 82.6778C138.471 82.733 139.275 83.8504 140.245 85.3054C140.464 85.6357 140.721 86.0212 140.907 86.2564L140.944 85.8147L141.38 86.3198C142.066 87.1137 142.539 88.0677 142.755 89.0929C142.971 90.1182 142.924 91.1814 142.617 92.1835C142.311 93.1857 141.755 94.0941 141.002 94.8243C140.249 95.5545 139.323 96.0826 138.31 96.3596C137.506 96.5509 136.685 96.6598 135.859 96.6847C135.359 96.7167 134.841 96.7497 134.343 96.8227C132.746 97.1064 131.25 97.7984 130 98.8313C128.751 99.8641 127.791 101.203 127.215 102.716C127.079 103.065 126.865 103.379 126.588 103.633C126.311 103.887 125.979 104.074 125.618 104.179C125.258 104.285 124.877 104.306 124.507 104.242C124.136 104.178 123.786 104.029 123.482 103.809C122.977 103.395 122.378 103.109 121.738 102.975C121.098 102.842 120.435 102.865 119.806 103.042C119.259 103.328 118.826 103.792 118.582 104.358C118.286 104.987 117.809 105.514 117.211 105.872C115.174 106.854 114.916 111.432 115.54 115.27C116.141 118.969 117.448 121.668 118.718 121.832C119.697 121.959 119.807 122.031 119.874 122.206L119.933 122.363L119.819 122.505C119.272 122.687 118.693 122.749 118.12 122.687Z" fill="#2F2E41"/>
<path d="M187.357 205.85C197.425 205.85 207.266 202.871 215.638 197.292C224.009 191.712 230.533 183.781 234.386 174.502C238.239 165.223 239.247 155.013 237.283 145.163C235.318 135.313 230.47 126.264 223.351 119.163C216.232 112.061 207.162 107.225 197.288 105.265C187.414 103.306 177.178 104.312 167.877 108.155C158.576 111.998 150.626 118.507 145.032 126.858C139.439 135.208 136.453 145.026 136.453 155.07C136.469 168.533 141.837 181.44 151.38 190.96C160.923 200.479 173.861 205.834 187.357 205.85ZM187.357 105.546C197.176 105.546 206.774 108.451 214.938 113.892C223.102 119.334 229.465 127.069 233.222 136.118C236.98 145.167 237.963 155.125 236.047 164.731C234.132 174.338 229.403 183.162 222.461 190.088C215.518 197.014 206.672 201.731 197.042 203.642C187.412 205.552 177.43 204.572 168.359 200.823C159.288 197.075 151.534 190.727 146.08 182.583C140.625 174.439 137.713 164.864 137.713 155.07C137.728 141.94 142.963 129.352 152.27 120.068C161.577 110.783 174.195 105.561 187.357 105.546Z" fill="#3F3D56"/>
<path d="M272.843 111.784C245.078 111.784 222.569 89.3298 222.569 61.6317C222.569 33.9336 245.078 11.4799 272.843 11.4799C300.609 11.4799 323.117 33.9336 323.117 61.6317C323.117 89.3298 300.609 111.784 272.843 111.784Z" fill="white"/>
<path d="M270.516 66.7475C261.462 66.7475 254.123 59.4258 254.123 50.3939C254.123 41.362 261.462 34.0403 270.516 34.0403C279.57 34.0403 286.91 41.362 286.91 50.3939C286.91 59.4258 279.57 66.7475 270.516 66.7475Z" fill="#FFB8B8"/>
<path d="M256.082 39.5902C256.082 39.5902 251.814 31.4504 261.204 30.7104C261.204 30.7104 269.21 23.4662 277.369 29.3861C277.369 29.3861 281.82 29.3861 284.254 34.4103C284.254 34.4103 287.754 33.086 288.524 36.6303C288.524 36.6303 291.085 44.0302 288.524 50.69C285.962 57.3499 285.112 58.0899 285.112 58.0899C285.112 58.0899 286.909 49.8254 276.664 49.0854C266.419 48.3454 257.02 41.943 256.166 50.0828C255.313 58.2226 254.374 54.5456 254.374 54.5456C254.374 54.5456 246.265 42.9202 256.082 39.5902Z" fill="#2F2E41"/>
<path d="M235.035 94.9795C243.745 104.866 256.002 110.939 269.162 111.888C282.321 112.836 295.327 108.585 305.371 100.05L301.059 88.0474C300.085 85.9155 298.547 84.0884 296.611 82.762C294.675 81.4357 292.413 80.6601 290.069 80.5184L287.325 80.3504L280.784 74.7225C280.784 74.7225 263.159 74.0947 263.42 73.7941L252.744 80.2001L252.753 80.1559L248.556 80.4123C246.212 80.5534 243.95 81.3287 242.013 82.6552C240.077 83.9816 238.539 85.809 237.565 87.9413L235.035 94.9795Z" fill="#6C63FF"/>
<path d="M272.843 112.412C282.911 112.412 292.752 109.434 301.123 103.854C309.494 98.274 316.019 90.3432 319.872 81.0644C323.724 71.7856 324.732 61.5754 322.768 51.725C320.804 41.8747 315.956 32.8265 308.837 25.7248C301.718 18.6231 292.648 13.7868 282.774 11.8274C272.899 9.86807 262.664 10.8737 253.363 14.7171C244.061 18.5605 236.111 25.0691 230.518 33.4199C224.925 41.7706 221.939 51.5884 221.939 61.6317C221.955 75.0947 227.323 88.0019 236.866 97.5217C246.408 107.042 259.347 112.396 272.843 112.412ZM272.843 12.1082C282.662 12.1082 292.26 15.0127 300.424 20.4544C308.588 25.8961 314.951 33.6306 318.708 42.6799C322.465 51.7291 323.449 61.6866 321.533 71.2933C319.617 80.8999 314.889 89.7241 307.946 96.6501C301.004 103.576 292.158 108.293 282.528 110.204C272.898 112.115 262.916 111.134 253.845 107.385C244.774 103.637 237.02 97.2896 231.565 89.1455C226.11 81.0014 223.199 71.4265 223.199 61.6317C223.214 48.5018 228.449 35.914 237.756 26.6298C247.063 17.3455 259.681 12.1231 272.843 12.1082Z" fill="#3F3D56"/>
<path d="M390.186 190.943C362.42 190.943 339.912 168.489 339.912 140.791C339.912 113.093 362.42 90.6394 390.186 90.6394C417.951 90.6394 440.459 113.093 440.459 140.791C440.459 168.489 417.951 190.943 390.186 190.943Z" fill="white"/>
<path d="M413.487 124.477C411.408 117.868 406.681 111.806 400.143 109.572C393.605 107.338 384.032 110.741 379.117 115.628C370.126 124.567 367.932 155.274 374.109 164.978C375.337 164.913 379.577 164.865 380.82 164.819L382.58 158.97V164.761C384.561 164.7 386.557 164.658 388.569 164.635C395.316 164.551 401.767 161.862 406.566 157.132C411.366 152.402 414.14 146 414.306 139.271C414.467 132.835 414.306 127.081 413.487 124.477Z" fill="#2F2E41"/>
<path d="M390.931 146.381C383.018 146.381 376.604 139.981 376.604 132.088C376.604 124.194 383.018 117.795 390.931 117.795C398.844 117.795 405.259 124.194 405.259 132.088C405.259 139.981 398.844 146.381 390.931 146.381Z" fill="#9E616A"/>
<path d="M403.296 119.535L386.799 111.295C383.427 112.811 380.522 115.199 378.387 118.213C376.251 121.226 374.963 124.755 374.655 128.432L374.244 133.346L381.152 131.591L381.909 125.309L383.082 131.101L386.27 130.292L386.24 120.538L389.43 130.285L400.816 127.676L403.296 119.535Z" fill="#2F2E41"/>
<path d="M352.879 173.98C361.589 183.866 373.847 189.939 387.006 190.888C400.165 191.837 413.171 187.585 423.215 179.051L418.903 167.048C417.929 164.916 416.391 163.089 414.455 161.762C412.519 160.436 410.257 159.66 407.913 159.519L405.169 159.351L398.628 153.723C398.628 153.723 381.003 153.095 381.264 152.794L370.588 159.2L370.597 159.156L366.4 159.413C364.056 159.554 361.794 160.329 359.857 161.655C357.921 162.982 356.383 164.809 355.41 166.942L352.879 173.98Z" fill="#6C63FF"/>
<path d="M390.185 191.571C400.253 191.571 410.095 188.593 418.466 183.013C426.837 177.434 433.361 169.503 437.214 160.224C441.067 150.945 442.075 140.735 440.111 130.885C438.147 121.034 433.299 111.986 426.18 104.884C419.061 97.7827 409.991 92.9463 400.116 90.987C390.242 89.0276 380.007 90.0332 370.705 93.8767C361.404 97.7201 353.454 104.229 347.861 112.579C342.267 120.93 339.282 130.748 339.282 140.791C339.297 154.254 344.665 167.161 354.208 176.681C363.751 186.201 376.69 191.556 390.185 191.571ZM390.185 91.2678C400.004 91.2678 409.602 94.1723 417.766 99.614C425.93 105.056 432.293 112.79 436.05 121.839C439.808 130.889 440.791 140.846 438.876 150.453C436.96 160.059 432.232 168.884 425.289 175.81C418.346 182.736 409.5 187.452 399.87 189.363C390.24 191.274 380.259 190.293 371.187 186.545C362.116 182.797 354.363 176.449 348.908 168.305C343.453 160.161 340.541 150.586 340.541 140.791C340.556 127.661 345.791 115.074 355.098 105.789C364.405 96.5051 377.024 91.2827 390.185 91.2678Z" fill="#3F3D56"/>
<path d="M140.926 181.088L148.537 167.92C158.396 169.17 177.376 181.728 177.376 181.728L214.088 191.749C215.214 191.39 216.415 191.334 217.569 191.586C218.724 191.838 219.791 192.388 220.665 193.182C221.538 193.977 222.186 194.986 222.544 196.11C222.902 197.233 222.957 198.431 222.703 199.582C222.449 200.734 221.896 201.798 221.099 202.668C220.302 203.539 219.289 204.184 218.162 204.54C217.036 204.895 215.835 204.948 214.681 204.694C213.527 204.44 212.461 203.886 211.589 203.09L164.503 196.963L140.926 181.088Z" fill="#9E616A"/>
<path d="M143.546 183.474L126.506 169.236L124.027 157.776C123.549 155.524 123.711 153.184 124.496 151.019C125.281 148.855 126.657 146.953 128.468 145.527C130.937 143.612 134.044 142.703 137.159 142.985C140.274 143.267 143.165 144.718 145.249 147.045C151.561 154.108 158.663 163.862 156.644 170.223L156.623 170.287L143.546 183.474Z" fill="#3F3D56"/>
<path d="M314.496 243.788H378.523C380.239 243.786 381.884 243.105 383.097 241.895C384.311 240.684 384.993 239.043 384.995 237.332V197.993C384.993 196.281 384.311 194.64 383.097 193.43C381.884 192.219 380.239 191.539 378.523 191.537H314.496C312.781 191.539 311.136 192.219 309.922 193.43C308.709 194.64 308.026 196.281 308.024 197.993V237.332C308.026 239.043 308.709 240.684 309.922 241.895C311.135 243.105 312.781 243.786 314.496 243.788Z" fill="#E6E6E6"/>
<path d="M353.084 238.721H318.997C317.39 238.719 315.85 238.082 314.713 236.948C313.577 235.815 312.938 234.278 312.936 232.674V202.65C312.938 201.047 313.577 199.51 314.713 198.377C315.85 197.243 317.39 196.606 318.997 196.604H374.023C375.63 196.606 377.17 197.243 378.307 198.377C379.443 199.51 380.082 201.047 380.084 202.65V211.787C380.076 218.928 377.229 225.774 372.167 230.823C367.105 235.873 360.243 238.713 353.084 238.721Z" fill="white"/>
<path d="M324.486 213.044H368.533C368.914 213.044 369.28 212.893 369.549 212.624C369.818 212.356 369.97 211.991 369.97 211.611C369.97 211.231 369.818 210.867 369.549 210.598C369.28 210.329 368.914 210.178 368.533 210.178H324.486C324.105 210.178 323.74 210.329 323.47 210.598C323.201 210.867 323.05 211.231 323.05 211.611C323.05 211.991 323.201 212.356 323.47 212.624C323.74 212.893 324.105 213.044 324.486 213.044Z" fill="#6C63FF"/>
<path d="M331.377 218.707H324.487C324.106 218.707 323.74 218.556 323.471 218.287C323.201 218.018 323.05 217.654 323.05 217.274C323.05 216.894 323.201 216.529 323.471 216.26C323.74 215.992 324.106 215.841 324.487 215.841H331.377C331.758 215.841 332.123 215.992 332.392 216.26C332.662 216.529 332.813 216.894 332.813 217.274C332.813 217.654 332.662 218.018 332.392 218.287C332.123 218.556 331.758 218.707 331.377 218.707Z" fill="#6C63FF"/>
<path d="M343.58 224.37H324.486C324.106 224.369 323.741 224.217 323.473 223.949C323.204 223.68 323.053 223.316 323.053 222.936C323.053 222.557 323.204 222.193 323.473 221.924C323.741 221.655 324.106 221.504 324.486 221.503H343.58C343.96 221.504 344.325 221.655 344.594 221.924C344.862 222.193 345.013 222.557 345.013 222.936C345.013 223.316 344.862 223.68 344.594 223.949C344.325 224.217 343.96 224.369 343.58 224.37Z" fill="#6C63FF"/>
<path d="M387.229 204.264C379.749 204.264 373.685 198.215 373.685 190.753C373.685 183.291 379.749 177.242 387.229 177.242C394.71 177.242 400.774 183.291 400.774 190.753C400.774 198.215 394.71 204.264 387.229 204.264Z" fill="#3F3D56"/>
<path d="M148.235 65.3649H212.261C213.977 65.363 215.622 64.6822 216.836 63.4718C218.049 62.2614 218.731 60.6203 218.733 58.9086V19.5699C218.731 17.8582 218.049 16.2171 216.836 15.0067C215.622 13.7963 213.977 13.1155 212.261 13.1135H148.235C146.519 13.1155 144.874 13.7963 143.66 15.0067C142.447 16.2171 141.765 17.8582 141.763 19.5699V58.9085C141.765 60.6203 142.447 62.2614 143.66 63.4718C144.874 64.6822 146.519 65.363 148.235 65.3649Z" fill="#E6E6E6"/>
<path d="M186.823 60.2977H152.735C151.128 60.296 149.588 59.6584 148.451 58.5248C147.315 57.3912 146.676 55.8543 146.674 54.2511V24.227C146.676 22.6239 147.315 21.0869 148.451 19.9534C149.588 18.8198 151.128 18.1822 152.735 18.1804H207.761C209.368 18.1822 210.909 18.8198 212.045 19.9534C213.181 21.087 213.82 22.6239 213.822 24.227V33.364C213.814 40.5048 210.967 47.3509 205.905 52.4002C200.843 57.4495 193.981 60.2897 186.823 60.2977Z" fill="white"/>
<path d="M202.271 34.6211H158.224C157.843 34.6211 157.478 34.4701 157.208 34.2014C156.939 33.9326 156.788 33.5681 156.788 33.188C156.788 32.808 156.939 32.4435 157.208 32.1747C157.478 31.906 157.843 31.755 158.224 31.755H202.271C202.652 31.755 203.018 31.906 203.287 32.1747C203.557 32.4435 203.708 32.808 203.708 33.188C203.708 33.5681 203.557 33.9326 203.287 34.2014C203.018 34.4701 202.652 34.6211 202.271 34.6211Z" fill="#6C63FF"/>
<path d="M165.114 40.2837H158.224C157.843 40.2837 157.478 40.1327 157.208 39.8639C156.939 39.5952 156.788 39.2307 156.788 38.8506C156.788 38.4705 156.939 38.106 157.208 37.8372C157.478 37.5685 157.843 37.4175 158.224 37.4175H165.114C165.495 37.4175 165.861 37.5685 166.13 37.8372C166.4 38.106 166.551 38.4705 166.551 38.8506C166.551 39.2307 166.4 39.5952 166.13 39.8639C165.861 40.1327 165.495 40.2837 165.114 40.2837Z" fill="#6C63FF"/>
<path d="M177.318 45.9463H158.224C157.844 45.9455 157.479 45.7942 157.211 45.5255C156.942 45.2568 156.791 44.8927 156.791 44.5132C156.791 44.1336 156.942 43.7696 157.211 43.5009C157.479 43.2322 157.844 43.0809 158.224 43.0801H177.318C177.699 43.0801 178.064 43.2311 178.334 43.4998C178.603 43.7686 178.754 44.1331 178.754 44.5132C178.754 44.8933 178.603 45.2578 178.334 45.5265C178.064 45.7953 177.699 45.9463 177.318 45.9463Z" fill="#6C63FF"/>
<path d="M220.968 72.9602C213.487 72.9602 207.424 66.911 207.424 59.4489C207.424 51.9868 213.487 45.9376 220.968 45.9376C228.448 45.9376 234.512 51.9868 234.512 59.4489C234.512 66.911 228.448 72.9602 220.968 72.9602Z" fill="#3F3D56"/>
</g>
<defs>
<clipPath id="clip0_444_3344">
<rect width="508" height="439" fill="white" transform="matrix(-1 0 0 1 508 0)"/>
</clipPath>
</defs>
</svg>
