<?xml version="1.0" encoding="utf-8"?>
<!-- Generator: Adobe Illustrator 26.0.0, SVG Export Plug-In . SVG Version: 6.00 Build 0)  -->
<svg version="1.1" id="Capa_1" xmlns="http://www.w3.org/2000/svg" xmlns:xlink="http://www.w3.org/1999/xlink" x="0px" y="0px"
	 viewBox="0 0 667.6 224.2" style="enable-background:new 0 0 667.6 224.2;" xml:space="preserve">
<style type="text/css">
	.st0{enable-background:new    ;}
	.st1{fill:#059669;}
	.st2{fill:#FFFFFF;}
</style>
<g id="DESIGNED_BY_FREEPIK">
	<g class="st0">
		<path class="st1" d="M434.1,91v62.7h24.6v14.5h-43.5V91H434.1z"/>
		<path class="st1" d="M466,90.3c0-5.7,4.5-10.2,11.2-10.2c6.6,0,11.1,4.5,11.1,10.2c0,5.6-4.5,10.1-11.1,10.1
			C470.5,100.4,466,95.9,466,90.3z M467.7,106.8h18.8v61.4h-18.8V106.8z"/>
		<path class="st1" d="M542.5,134.9c0-8.4-4.6-13-11.8-13c-7.2,0-11.8,4.6-11.8,13v33.3h-18.8v-61.4H519v8.1
			c3.7-5.2,10.3-8.8,18.6-8.8c14.2,0,23.7,9.7,23.7,26.2v35.9h-18.7V134.9z"/>
		<path class="st1" d="M574.3,86.8h18.8v45l18.6-25h23.2l-25.5,30.8l25.7,30.6h-23.3l-18.7-25.7v25.7h-18.8V86.8z"/>
	</g>
	<g class="st0">
		<path class="st2" d="M358.6,197c-1.5,0-2.8-0.2-4-0.7c-1.2-0.5-2.3-1.2-3.2-2.1c-0.9-0.9-1.6-1.9-2.1-3.1s-0.8-2.5-0.8-4
			s0.3-2.8,0.8-4s1.2-2.3,2.1-3.2c0.9-0.9,2-1.6,3.2-2.1c1.2-0.5,2.6-0.7,4-0.7c1.4,0,2.7,0.2,3.9,0.7c1.2,0.4,2.2,1.1,3.1,2
			l-0.9,0.9c-0.8-0.8-1.8-1.4-2.8-1.8s-2.1-0.5-3.2-0.5c-1.2,0-2.4,0.2-3.5,0.6c-1.1,0.4-2,1-2.8,1.8c-0.8,0.8-1.4,1.7-1.8,2.7
			c-0.4,1-0.7,2.2-0.7,3.4c0,1.2,0.2,2.4,0.7,3.4c0.4,1,1.1,2,1.8,2.7c0.8,0.8,1.7,1.4,2.8,1.8c1.1,0.4,2.2,0.6,3.5,0.6
			c1.1,0,2.2-0.2,3.2-0.5c1-0.4,1.9-1,2.8-1.8l0.9,0.9c-0.9,0.9-1.9,1.6-3.1,2.1C361.2,196.7,359.9,197,358.6,197z"/>
	</g>
	<g class="st0">
		<path class="st2" d="M377.7,196.9c-1.4,0-2.6-0.3-3.7-1c-1.1-0.6-2-1.5-2.6-2.6c-0.6-1.1-1-2.4-1-3.8c0-1.5,0.3-2.7,1-3.9
			c0.6-1.1,1.5-2,2.6-2.6c1.1-0.6,2.3-1,3.7-1s2.7,0.3,3.8,1c1.1,0.6,2,1.5,2.6,2.6c0.6,1.1,1,2.4,1,3.9c0,1.4-0.3,2.7-1,3.8
			c-0.6,1.1-1.5,2-2.6,2.6S379.1,196.9,377.7,196.9z M377.7,195.7c1.1,0,2.1-0.3,3-0.8c0.9-0.5,1.6-1.2,2.1-2.2s0.8-2,0.8-3.2
			c0-1.2-0.3-2.3-0.8-3.2s-1.2-1.6-2.1-2.2c-0.9-0.5-1.9-0.8-3-0.8s-2.1,0.3-3,0.8c-0.9,0.5-1.6,1.2-2.1,2.2s-0.8,2-0.8,3.2
			c0,1.2,0.3,2.3,0.8,3.2s1.2,1.7,2.1,2.2C375.6,195.4,376.6,195.7,377.7,195.7z"/>
		<path class="st2" d="M399.3,182.1c1.2,0,2.2,0.2,3.1,0.7c0.9,0.5,1.6,1.1,2.1,2.1c0.5,0.9,0.7,2.1,0.7,3.4v8.5h-1.4v-8.4
			c0-1.6-0.4-2.9-1.2-3.8c-0.8-0.9-2-1.3-3.5-1.3c-1.1,0-2.1,0.2-3,0.7s-1.5,1.1-1.9,2c-0.4,0.8-0.7,1.8-0.7,3v7.8h-1.4v-14.6h1.3
			v4.1l-0.2-0.4c0.4-1.2,1.2-2.1,2.2-2.7C396.5,182.4,397.8,182.1,399.3,182.1z"/>
		<path class="st2" d="M419.7,196.9c-1.5,0-2.8-0.3-3.9-1c-1.1-0.6-2-1.5-2.7-2.6c-0.6-1.1-1-2.4-1-3.8c0-1.5,0.3-2.7,0.9-3.9
			c0.6-1.1,1.4-2,2.5-2.6c1.1-0.6,2.3-1,3.6-1c1.3,0,2.5,0.3,3.6,0.9c1.1,0.6,1.9,1.5,2.5,2.6s0.9,2.4,0.9,3.8c0,0.1,0,0.1,0,0.2
			c0,0.1,0,0.1,0,0.2h-12.9v-1.1h12.2l-0.6,0.5c0-1.1-0.2-2.2-0.7-3.1c-0.5-0.9-1.2-1.6-2-2.1c-0.8-0.5-1.8-0.8-2.9-0.8
			c-1.1,0-2,0.3-2.9,0.8s-1.5,1.2-2,2.1s-0.7,1.9-0.7,3.1v0.3c0,1.2,0.3,2.3,0.8,3.2s1.3,1.6,2.2,2.2c0.9,0.5,2,0.8,3.2,0.8
			c0.9,0,1.8-0.2,2.6-0.5c0.8-0.3,1.5-0.8,2.1-1.5l0.8,0.9c-0.6,0.8-1.4,1.4-2.4,1.8C421.9,196.7,420.9,196.9,419.7,196.9z"/>
	</g>
	<g class="st0">
		<path class="st2" d="M439.1,196.9c-1.4,0-2.7-0.3-3.8-1c-1.1-0.6-2-1.5-2.6-2.6c-0.6-1.1-1-2.4-1-3.8c0-1.5,0.3-2.7,1-3.9
			c0.6-1.1,1.5-2,2.6-2.6c1.1-0.6,2.4-0.9,3.8-0.9c1.2,0,2.2,0.2,3.2,0.7c1,0.4,1.7,1.1,2.3,2l-1,0.8c-0.5-0.7-1.2-1.3-2-1.7
			s-1.6-0.5-2.5-0.5c-1.1,0-2.2,0.3-3.1,0.8c-0.9,0.5-1.6,1.2-2.1,2.2c-0.5,0.9-0.8,2-0.8,3.2c0,1.2,0.3,2.3,0.8,3.2
			c0.5,0.9,1.2,1.6,2.1,2.2s1.9,0.8,3.1,0.8c0.9,0,1.8-0.2,2.5-0.5s1.4-0.9,2-1.7l1,0.8c-0.6,0.9-1.4,1.6-2.3,2
			C441.4,196.7,440.3,196.9,439.1,196.9z"/>
	</g>
	<g class="st0">
		<path class="st2" d="M449.4,183.4v-1.2h8.7v1.2H449.4z M456.1,196.9c-1.3,0-2.3-0.4-3-1.1c-0.7-0.7-1-1.7-1-2.9V179h1.4v13.8
			c0,0.9,0.2,1.7,0.7,2.2c0.5,0.5,1.1,0.8,2,0.8c0.9,0,1.7-0.3,2.3-0.8l0.6,1c-0.4,0.4-0.8,0.6-1.4,0.8S456.6,196.9,456.1,196.9z"/>
		<path class="st2" d="M469.7,196.9c-1.1,0-2-0.2-2.8-0.5c-0.8-0.3-1.4-0.8-1.8-1.5c-0.4-0.6-0.6-1.4-0.6-2.2c0-0.7,0.2-1.4,0.5-2
			c0.3-0.6,0.9-1.1,1.7-1.5c0.8-0.4,1.9-0.6,3.2-0.6h5.4v1.1h-5.3c-1.5,0-2.6,0.3-3.2,0.8c-0.6,0.6-0.9,1.3-0.9,2.1
			c0,0.9,0.4,1.7,1.1,2.2c0.7,0.6,1.7,0.8,3,0.8c1.2,0,2.3-0.3,3.1-0.8s1.5-1.4,1.9-2.4l0.4,1c-0.4,1.1-1.1,1.9-2,2.5
			C472.4,196.6,471.2,196.9,469.7,196.9z M475,196.8v-3.3l-0.1-0.5v-5.5c0-1.4-0.4-2.4-1.1-3.1c-0.7-0.7-1.8-1.1-3.2-1.1
			c-1,0-1.9,0.2-2.8,0.5c-0.9,0.3-1.6,0.8-2.2,1.3l-0.7-1c0.7-0.7,1.6-1.2,2.6-1.5c1-0.4,2.1-0.5,3.2-0.5c1.8,0,3.2,0.5,4.2,1.4
			c1,0.9,1.5,2.3,1.5,4.1v9.3H475z"/>
		<path class="st2" d="M492,182.1c1.2,0,2.2,0.2,3.1,0.7c0.9,0.5,1.6,1.1,2.1,2.1c0.5,0.9,0.7,2.1,0.7,3.4v8.5h-1.4v-8.4
			c0-1.6-0.4-2.9-1.2-3.8c-0.8-0.9-2-1.3-3.5-1.3c-1.1,0-2.1,0.2-3,0.7c-0.8,0.5-1.5,1.1-1.9,2c-0.4,0.8-0.7,1.8-0.7,3v7.8h-1.4
			v-14.6h1.3v4.1l-0.2-0.4c0.4-1.2,1.2-2.1,2.2-2.7C489.3,182.4,490.5,182.1,492,182.1z"/>
		<path class="st2" d="M512.2,196.9c-1.4,0-2.6-0.3-3.7-0.9c-1.1-0.6-2-1.5-2.6-2.6c-0.6-1.1-1-2.4-1-3.9c0-1.5,0.3-2.8,1-3.9
			c0.6-1.1,1.5-2,2.6-2.6c1.1-0.6,2.3-0.9,3.7-0.9c1.3,0,2.5,0.3,3.5,0.9c1,0.6,1.9,1.4,2.5,2.5c0.6,1.1,0.9,2.4,0.9,4
			c0,1.5-0.3,2.8-0.9,3.9s-1.4,2-2.5,2.6C514.6,196.6,513.5,196.9,512.2,196.9z M512.2,195.7c1.1,0,2.1-0.3,3-0.8s1.6-1.2,2.1-2.2
			c0.5-0.9,0.8-2,0.8-3.2c0-1.2-0.3-2.3-0.8-3.2c-0.5-0.9-1.2-1.6-2.1-2.2c-0.9-0.5-1.9-0.8-3-0.8s-2.1,0.3-3,0.8
			c-0.9,0.5-1.6,1.2-2.1,2.2s-0.8,2-0.8,3.2c0,1.2,0.3,2.3,0.8,3.2s1.2,1.7,2.1,2.2C510.1,195.4,511.1,195.7,512.2,195.7z
			 M518.1,196.8V192l0.3-2.5l-0.3-2.5V176h1.4v20.8H518.1z"/>
		<path class="st2" d="M533.9,196.9c-1.4,0-2.6-0.3-3.7-1s-2-1.5-2.6-2.6c-0.6-1.1-1-2.4-1-3.8c0-1.5,0.3-2.7,1-3.9
			c0.6-1.1,1.5-2,2.6-2.6c1.1-0.6,2.3-1,3.7-1c1.4,0,2.7,0.3,3.8,1c1.1,0.6,2,1.5,2.6,2.6c0.6,1.1,1,2.4,1,3.9c0,1.4-0.3,2.7-1,3.8
			s-1.5,2-2.6,2.6C536.6,196.6,535.3,196.9,533.9,196.9z M533.9,195.7c1.1,0,2.1-0.3,3-0.8c0.9-0.5,1.6-1.2,2.1-2.2
			c0.5-0.9,0.8-2,0.8-3.2c0-1.2-0.3-2.3-0.8-3.2c-0.5-0.9-1.2-1.6-2.1-2.2c-0.9-0.5-1.9-0.8-3-0.8c-1.1,0-2.1,0.3-3,0.8
			c-0.9,0.5-1.6,1.2-2.1,2.2c-0.5,0.9-0.8,2-0.8,3.2c0,1.2,0.3,2.3,0.8,3.2c0.5,0.9,1.2,1.7,2.1,2.2S532.8,195.7,533.9,195.7z"/>
		<path class="st2" d="M559.1,178.6c-0.3,0-0.6-0.1-0.8-0.3c-0.2-0.2-0.3-0.5-0.3-0.8c0-0.3,0.1-0.6,0.3-0.8
			c0.2-0.2,0.5-0.3,0.8-0.3c0.3,0,0.6,0.1,0.8,0.3c0.2,0.2,0.3,0.5,0.3,0.8c0,0.3-0.1,0.6-0.3,0.8
			C559.7,178.5,559.4,178.6,559.1,178.6z M558.4,196.8v-14.6h1.4v14.6H558.4z"/>
		<path class="st2" d="M574.1,196.9c-1.4,0-2.6-0.3-3.7-0.9c-1.1-0.6-2-1.5-2.6-2.6c-0.6-1.1-1-2.4-1-3.9c0-1.5,0.3-2.8,1-3.9
			c0.6-1.1,1.5-2,2.6-2.6c1.1-0.6,2.3-0.9,3.7-0.9c1.3,0,2.5,0.3,3.5,0.9c1,0.6,1.9,1.4,2.5,2.5c0.6,1.1,0.9,2.4,0.9,4
			c0,1.5-0.3,2.8-0.9,3.9s-1.4,2-2.5,2.6C576.6,196.6,575.4,196.9,574.1,196.9z M574.2,195.7c1.1,0,2.1-0.3,3-0.8s1.6-1.2,2.1-2.2
			c0.5-0.9,0.8-2,0.8-3.2c0-1.2-0.3-2.3-0.8-3.2c-0.5-0.9-1.2-1.6-2.1-2.2c-0.9-0.5-1.9-0.8-3-0.8s-2.1,0.3-3,0.8
			c-0.9,0.5-1.6,1.2-2.1,2.2s-0.8,2-0.8,3.2c0,1.2,0.3,2.3,0.8,3.2s1.2,1.7,2.1,2.2C572.1,195.4,573.1,195.7,574.2,195.7z
			 M580.1,196.8V192l0.3-2.5l-0.3-2.5V176h1.4v20.8H580.1z"/>
	</g>
	<g class="st0">
		<path class="st2" d="M596.1,196.9c-1.5,0-2.8-0.3-3.9-1c-1.1-0.6-2-1.5-2.7-2.6c-0.6-1.1-1-2.4-1-3.8c0-1.5,0.3-2.7,0.9-3.9
			c0.6-1.1,1.4-2,2.5-2.6c1.1-0.6,2.3-1,3.6-1c1.3,0,2.5,0.3,3.6,0.9c1.1,0.6,1.9,1.5,2.5,2.6c0.6,1.1,0.9,2.4,0.9,3.8
			c0,0.1,0,0.1,0,0.2c0,0.1,0,0.1,0,0.2h-12.9v-1.1h12.2l-0.6,0.5c0-1.1-0.2-2.2-0.7-3.1s-1.2-1.6-2-2.1s-1.8-0.8-2.9-0.8
			c-1.1,0-2,0.3-2.9,0.8c-0.8,0.5-1.5,1.2-2,2.1s-0.7,1.9-0.7,3.1v0.3c0,1.2,0.3,2.3,0.8,3.2c0.5,0.9,1.3,1.6,2.2,2.2
			c0.9,0.5,2,0.8,3.2,0.8c0.9,0,1.8-0.2,2.6-0.5c0.8-0.3,1.5-0.8,2.1-1.5l0.8,0.9c-0.6,0.8-1.4,1.4-2.4,1.8
			C598.3,196.7,597.3,196.9,596.1,196.9z"/>
	</g>
	<g class="st0">
		<path class="st2" d="M613.2,196.9c-1.1,0-2-0.2-2.8-0.5c-0.8-0.3-1.4-0.8-1.8-1.5c-0.4-0.6-0.6-1.4-0.6-2.2c0-0.7,0.2-1.4,0.5-2
			c0.3-0.6,0.9-1.1,1.7-1.5c0.8-0.4,1.9-0.6,3.2-0.6h5.4v1.1h-5.3c-1.5,0-2.6,0.3-3.2,0.8c-0.6,0.6-0.9,1.3-0.9,2.1
			c0,0.9,0.4,1.7,1.1,2.2c0.7,0.6,1.7,0.8,3,0.8c1.2,0,2.3-0.3,3.1-0.8s1.5-1.4,1.9-2.4l0.4,1c-0.4,1.1-1.1,1.9-2,2.5
			C615.9,196.6,614.7,196.9,613.2,196.9z M618.5,196.8v-3.3l-0.1-0.5v-5.5c0-1.4-0.4-2.4-1.1-3.1c-0.7-0.7-1.8-1.1-3.2-1.1
			c-1,0-1.9,0.2-2.8,0.5c-0.9,0.3-1.6,0.8-2.2,1.3l-0.7-1c0.7-0.7,1.6-1.2,2.6-1.5c1-0.4,2.1-0.5,3.2-0.5c1.8,0,3.2,0.5,4.2,1.4
			c1,0.9,1.5,2.3,1.5,4.1v9.3H618.5z"/>
		<path class="st2" d="M632.1,196.9c-1.2,0-2.3-0.2-3.4-0.5s-1.9-0.8-2.5-1.3l0.6-1.1c0.6,0.5,1.3,0.9,2.2,1.2s1.9,0.5,3,0.5
			c1.5,0,2.6-0.3,3.3-0.8s1-1.2,1-2c0-0.6-0.2-1.1-0.5-1.4c-0.3-0.3-0.8-0.6-1.4-0.8c-0.6-0.2-1.2-0.3-1.9-0.5
			c-0.7-0.1-1.4-0.3-2.1-0.4c-0.7-0.1-1.3-0.4-1.9-0.6c-0.6-0.3-1-0.7-1.4-1.2c-0.3-0.5-0.5-1.2-0.5-2c0-0.7,0.2-1.4,0.6-2
			c0.4-0.6,1-1.1,1.8-1.4c0.8-0.4,1.8-0.5,3.1-0.5c0.9,0,1.8,0.1,2.8,0.4s1.7,0.6,2.3,1l-0.6,1.1c-0.6-0.5-1.3-0.8-2.1-1
			c-0.8-0.2-1.5-0.3-2.3-0.3c-1.4,0-2.5,0.3-3.1,0.8c-0.7,0.5-1,1.2-1,2c0,0.6,0.2,1.1,0.5,1.5s0.8,0.6,1.4,0.8
			c0.6,0.2,1.2,0.4,1.9,0.5s1.4,0.3,2.1,0.4c0.7,0.1,1.3,0.4,1.9,0.6c0.6,0.3,1,0.6,1.4,1.1c0.3,0.5,0.5,1.1,0.5,1.9
			s-0.2,1.5-0.7,2.1s-1.1,1.1-1.9,1.4C634.4,196.8,633.4,196.9,632.1,196.9z"/>
	</g>
	<g class="st0">
		<path class="st2" d="M289.3,147c0-24.4-36.5-12.5-36.5-39.4c0-16.1,13.1-20,23.3-20c8.2,0,18.5,2.8,18.5,6.7
			c0,1.4-1.2,4.1-3.2,4.1c-2.1,0-5.7-4.2-15.4-4.2c-8.1,0-16,3-16,12.8c0,20.5,36.5,8.9,36.5,39.4c0,15.6-9.7,22.7-23.2,22.7
			c-14.1,0-22.6-7.9-22.6-11.9c0-1.8,1.6-4.1,3.3-4.1c2.9,0,5.1,9.1,18.8,9.1C283.2,162.1,289.3,157,289.3,147z"/>
		<path class="st2" d="M330.4,135.5l19,27.8c0.2,0.4,0.4,1,0.4,1.5c0,1.6-2,3.6-3.8,3.6c-0.9,0-1.7-0.4-2.2-1.3L325.4,140l-10.1,8.9
			v16.4c0,1.4-1.5,2.9-3.6,2.9c-2,0-3.5-1.4-3.5-2.9V86.9c0-1.5,1.5-2.6,3.5-2.6c2.1,0,3.6,1.1,3.6,2.6v53.6l26.8-23.9
			c0.5-0.3,1.1-0.7,1.6-0.7c1.8,0,3.6,1.5,3.6,3.4c0,0.7-0.1,1.4-0.8,2L330.4,135.5z"/>
		<path class="st2" d="M366.5,96.1c0,2.4-2.1,4.6-4.7,4.6c-2.8,0-5-2.2-5-4.6s2.2-4.5,5-4.5C364.4,91.6,366.5,93.7,366.5,96.1z
			 M365.4,118.8v46.5c0,1.4-1.6,2.9-3.6,2.9c-2,0-3.5-1.4-3.5-2.9v-46.5c0-1.5,1.5-2.6,3.5-2.6C363.8,116.2,365.4,117.3,365.4,118.8
			z"/>
		<path class="st2" d="M387.3,86.9v78.4c0,1.4-1.5,2.9-3.6,2.9c-2,0-3.5-1.4-3.5-2.9V86.9c0-1.5,1.5-2.6,3.5-2.6
			C385.8,84.3,387.3,85.4,387.3,86.9z"/>
		<path class="st2" d="M410.1,86.9v78.4c0,1.4-1.5,2.9-3.6,2.9c-2,0-3.5-1.4-3.5-2.9V86.9c0-1.5,1.5-2.6,3.5-2.6
			C408.5,84.3,410.1,85.4,410.1,86.9z"/>
	</g>
	<path class="st2" d="M30.4,72.1c1.4-4.5,3.7-8.2,8.1-10.3c5.6-2.8,12.4-1.7,16.8,2.8c4.7,4.9,5.7,11.8,2.6,17.5
		c-1.3,2.4-3.1,4.4-3.7,7.2c-0.7,3.6,1.7,7.2,5.3,8c2.3,0.5,4.6,1.4,6.6,2.7c7.8,4.4,15,0.2,17.1-7.6c2.2-8.2,7.2-13.6,15.6-15.4
		c14.7-3.1,24.1,10.1,24.2,19.4c0.1,5.2-1.7,10.2-5,14.2c-4.5,5.9-4.8,12.5,2.6,17c1,0.6,2,1.1,2.9,1.7c4.8,2.7,7.3,6.6,6.6,12.2
		c-0.1,1,0.3,2,0.9,2.7c2.5,3.2,6.8,4.3,10.5,2.8c1.7-0.6,3.4-1.5,5.1-2.2c1.9-0.8,3.9-1.2,6-1.2c2.7,0,4.3-1.6,4.6-4.3
		c0.2-2.4-0.7-4.5-1.9-6.6c-2.2-4.2-1.3-8.6,2.1-10.9c3.3-2.3,7.8-1.7,10.4,1.4c2.7,3.1,2.4,7.8-0.6,10.5c-1.1,1-2.4,1.9-3.6,2.9
		c-3.6,3-3.7,7.6-0.2,10.8c9,8,8,21-1.9,27.6c-2.1,1.5-4.3,2.7-6.7,3.9c-5.3,2.4-6.5,6.2-3.8,11.3c1.3,2.4,2.6,4.8,1.9,7.7
		c-0.7,3.4-3.6,5.8-7,6.1c-3.2,0.3-6.2-1.4-7.6-4.2c-1.5-2.9-1-6.5,1.4-8.8c0.7-0.7,1.5-1.4,2.4-2.1c4.7-3.8,5.1-8.3,0.8-12.5
		c-4-3.9-6.1-8.7-7.1-14.1c-0.3-1.6-0.2-3.2-0.5-4.7c-1.2-6.7-5.9-9.4-12.4-7.4c-5.2,1.7-10.3,0.1-13.2-4c-2.2-3.1-2.2-6.5-1.2-10
		c0.6-1.9,1.3-3.7,1.8-5.6c1.5-5.5-1.7-11.3-7.3-12.8c-0.8-0.2-1.6-0.3-2.4-0.4c-4.3-0.3-8.4-2.1-11.6-5.1c-1.9-1.8-4-3.3-6.2-4.5
		c-3.7-2-8.2-1.3-11.1,1.7c-1.4,1.5-2.7,3-3.9,4.8c-3.1,4.3-7.7,6.2-12.4,5.1c-6-1.4-9.8-7.5-8.3-13.5c0.4-1.6,1.1-3.1,2.1-4.4
		c2.4-2.8,2.1-7-0.7-9.3c-0.3-0.2-0.6-0.5-0.9-0.7c-1.3-0.8-2.7-1.4-4.2-1.7c-6.8-1.4-11.5-4.9-13.2-11.8V72.1z"/>
	<path class="st2" d="M207.7,28.1c5.7,1.7,9.8,5.1,11.3,11c2,7.7-2.7,15.6-10.4,17.6c-1,0.2-2,0.4-3,0.4c-6.2,0.3-10.8-2.2-14-7.6
		c-0.9-1.6-2-3.1-3.4-4.3c-2-1.8-5-2.2-7.4-1c-1.9,0.8-3.4,2.3-5.2,3.3c-2.8,1.8-6.3,1.7-9-0.2c-2.8-1.8-4.2-5-3.5-8.3
		c0.5-3.2,2.8-5.8,5.9-6.5c2.8-0.8,5.2,0,7.4,1.8c0.9,0.7,1.6,1.5,2.4,2.3c4.2,3.9,9,3.5,12.5-1c2.6-3.5,5.6-6.3,9.8-7.6L207.7,28.1
		z"/>
	<path class="st2" d="M162.8,68.7c-0.4-2.8,0.1-5.6,1.3-8.1c2.3-4.6,7.5-6.9,12.5-5.7c5,1.1,8.5,5.5,8.5,10.6
		c0.1,5.3-2.4,9-7.4,10.7c-2,0.7-4.1,1-6.1,1.6c-6.4,1.8-9.5,7.1-7.9,13.6c0.9,3.5,2.2,6.9,2.4,10.6c0.6,11.3-7.7,18.4-16,20.2
		c-10.7,2.3-21.3-4.5-23.7-15.3c0,0,0,0,0,0c-1.2-6,0.3-11.4,3.7-16.3c2.5-3.7,1.7-7.6-2.2-9.7c-1.3-0.6-2.6-1.2-4-1.7
		c-6-2.4-7.4-9.6-2.6-13.6c2.5-2.1,6.1-2.4,8.9-0.8c2.8,1.6,4.3,4.8,3.7,7.9c-0.3,1.6-0.6,3.2-0.7,4.9c0,1.6,0.5,3.2,1.6,4.4
		c1.3,1.5,2.6,2.3,4.8,1.4c2.7-1,5.7-1.4,8.6-1c2,0.2,4.1,0.1,6.1-0.2c5.6-1.1,8.4-4.3,8.6-9.9C162.9,71,162.8,70,162.8,68.7z"/>
	<path class="st2" d="M194.5,210.6c-7.1,0-11.7-3.2-14.3-9.8c-0.6-2-1.6-3.8-2.9-5.4c-1.6-1.9-4.2-2.7-6.6-2
		c-1.8,0.6-3.6,1.3-5.3,2.2c-3.5,1.6-7.6,0.6-10-2.4c-2.3-3-2.3-7.1-0.1-10.1c2.6-3.5,7.6-4.3,11.2-1.6c0.2,0.2,0.5,0.4,0.7,0.6
		c1.2,1.2,2.2,2.6,3.2,4c3.3,4.1,7.9,4.6,11.9,1.1c1.4-1.4,3-2.6,4.7-3.6c5.3-3,10.5-2.9,15.5,0.6s7.3,8.7,6.2,14.8
		s-4.8,9.8-10.8,11.4C196.8,210.5,195.7,210.6,194.5,210.6z"/>
	<path class="st1" d="M64.8,71.7l7.2,1.1c1,0.2,2-0.3,2.7-1.1c5.2-7,31.3-38.2,73.7-26.4c1.4,0.4,2.2,1.7,2,3.1l0,0
		c-0.2,1.5-1.6,2.6-3.2,2.4c-0.1,0-0.3,0-0.4-0.1c-9.5-2.8-39.5-8.9-60.8,17c-1,1.2-0.8,2.9,0.3,3.9c0.4,0.3,0.8,0.5,1.3,0.6l5.8,1
		c0.9,0.2,1.7-0.1,2.4-0.7c4.3-4,22.8-18.7,51.7-9.7c0.5,0.1,0.9,0.4,1.3,0.8c1.2,1.3,10.3-8.5,10.3-8.5l-1.6-42.1
		c0-1.3-1-2.5-2.4-2.7L133,7.1c-1.5-0.2-2.9,0.8-3.2,2.3l-3.3,18.1c-0.3,1.5-1.7,2.5-3.2,2.3c-4.1-0.5-12.5-0.5-23.3,5.9
		c-1.1,0.6-2.4,0.5-3.3-0.4L83.1,22.6c-0.9-0.9-2.3-1-3.4-0.3L63,33.2c-1.1,0.8-1.6,2.2-1,3.5l7.1,16.3c0.4,0.8,0.3,1.8-0.2,2.6
		c-2.5,3.9-4.6,8.1-6.3,12.5c-0.5,1.5,0.2,3.1,1.7,3.6C64.5,71.6,64.6,71.7,64.8,71.7z"/>
	<path class="st1" d="M194.8,65.5l-3.9,6.1c-0.6,0.9-0.6,2-0.1,2.9c4.3,7.6,22.3,44.1-5.6,78.1c-0.9,1.1-2.5,1.3-3.6,0.6l0,0
		c-1.3-0.8-1.7-2.6-0.8-3.8c0.1-0.1,0.1-0.2,0.2-0.3c6.4-7.6,24.1-32.6,9-62.4c-0.7-1.4-2.4-2-3.8-1.3c-0.4,0.2-0.8,0.5-1.1,0.9
		l-3.3,4.8c-0.5,0.7-0.6,1.6-0.3,2.4c1.9,5.5,7.9,28.4-12,51.3c-0.3,0.4-0.8,0.7-1.2,0.8c-1.7,0.5,3.6,12.9,3.6,12.9l39.1,15.6
		c1.2,0.5,2.7,0,3.4-1.1l12-18.9c0.8-1.3,0.5-3-0.8-3.8l-15.3-10.3c-1.2-0.8-1.6-2.5-0.8-3.8c2.1-3.5,5.5-11.2,4-23.7
		c-0.1-1.2,0.5-2.4,1.7-2.9l17.1-7.4c1.2-0.5,1.9-1.8,1.7-3.1l-3.2-19.7c-0.2-1.4-1.4-2.4-2.8-2.3h-17.7c-0.9,0-1.8-0.5-2.3-1.2
		c-2.6-3.9-5.6-7.5-8.9-10.8c-1.1-1.1-2.9-1-4,0.1C195,65.2,194.9,65.4,194.8,65.5z"/>
	<path class="st1" d="M140.4,182.3l-3.6-6.3c-0.5-0.9-1.5-1.4-2.5-1.4c-8.7,0.3-49.4-0.6-66.7-41.1c-0.5-1.3,0-2.8,1.2-3.5l0,0
		c1.3-0.8,3-0.3,3.8,1c0.1,0.1,0.1,0.2,0.2,0.4c3.8,9.2,17.8,36.4,51.2,36.9c1.6,0,2.8-1.2,2.9-2.7c0-0.5-0.1-1-0.3-1.4l-2.8-5.2
		c-0.4-0.8-1.1-1.3-2-1.4c-5.8-0.9-28.9-6.1-39.9-34.3c-0.2-0.5-0.2-1-0.2-1.5c0.3-1.7-13.1-2.7-13.1-2.7l-31.9,27.6
		c-1,0.9-1.3,2.4-0.6,3.5l11.2,19.4c0.8,1.3,2.4,1.8,3.8,1.1l16.2-8.8c1.3-0.7,3-0.2,3.7,1c2.1,3.5,7.4,10.1,19.2,14.5
		c1.2,0.4,1.9,1.6,1.8,2.8l-1.3,18.6c-0.1,1.3,0.7,2.5,1.9,2.9l18.9,6.3c1.3,0.4,2.7-0.1,3.4-1.4l8.3-15.7c0.4-0.8,1.2-1.4,2.1-1.5
		c4.6-0.5,9.2-1.5,13.6-2.9c1.5-0.5,2.3-2.1,1.8-3.6C140.6,182.7,140.5,182.5,140.4,182.3z"/>
</g>
</svg>
