<?xml version="1.0" encoding="utf-8"?>
<!-- Generator: Adobe Illustrator 26.0.0, SVG Export Plug-In . SVG Version: 6.00 Build 0)  -->
<svg version="1.1" id="Capa_1" xmlns="http://www.w3.org/2000/svg" xmlns:xlink="http://www.w3.org/1999/xlink" x="0px" y="0px"
	 viewBox="0 0 613.1 203.5" style="enable-background:new 0 0 613.1 203.5;" xml:space="preserve">
<style type="text/css">
	.st0{enable-background:new    ;}
	.st1{fill:#5865F2;}
	.st2{fill:#282728;}
	.st3{fill:url(#SVGID_1_);}
	.st4{fill:url(#SVGID_00000093165281949274165270000011297604854975931580_);}
	.st5{fill:url(#SVGID_00000183235405058843732240000005159257806080011152_);}
	.st6{fill:url(#SVGID_00000099625357853913036950000001830485203370771341_);}
	.st7{fill:#059669;}
</style>
<g id="DESIGNED_BY_FREEPIK">
	<g class="st0">
		<path class="st1" d="M404.9,83.9v62.7h24.6v14.5h-43.5V83.9H404.9z"/>
		<path class="st1" d="M436.8,83.3c0-5.7,4.5-10.2,11.2-10.2c6.6,0,11.1,4.5,11.1,10.2c0,5.6-4.5,10.1-11.1,10.1
			C441.3,93.4,436.8,88.9,436.8,83.3z M438.6,99.8h18.8v61.4h-18.8V99.8z"/>
		<path class="st1" d="M513.4,127.8c0-8.4-4.6-13-11.8-13c-7.2,0-11.8,4.6-11.8,13v33.3H471V99.8h18.8v8.1
			c3.7-5.2,10.3-8.8,18.6-8.8c14.2,0,23.7,9.7,23.7,26.2v35.9h-18.7V127.8z"/>
		<path class="st1" d="M545.1,79.8H564v45l18.6-25h23.2l-25.5,30.8l25.7,30.6h-23.3L564,135.4v25.7h-18.8V79.8z"/>
	</g>
	<g class="st0">
		<path class="st2" d="M329.4,189.9c-1.5,0-2.8-0.2-4-0.7c-1.2-0.5-2.3-1.2-3.2-2.1c-0.9-0.9-1.6-1.9-2.1-3.1s-0.8-2.5-0.8-4
			s0.3-2.8,0.8-4s1.2-2.3,2.1-3.2c0.9-0.9,2-1.6,3.2-2.1c1.2-0.5,2.6-0.7,4-0.7c1.4,0,2.7,0.2,3.9,0.7c1.2,0.4,2.2,1.1,3.1,2
			l-0.9,0.9c-0.8-0.8-1.8-1.4-2.8-1.8s-2.1-0.5-3.2-0.5c-1.2,0-2.4,0.2-3.5,0.6c-1.1,0.4-2,1-2.8,1.8c-0.8,0.8-1.4,1.7-1.8,2.7
			c-0.4,1-0.7,2.2-0.7,3.4c0,1.2,0.2,2.4,0.7,3.4c0.4,1,1.1,2,1.8,2.7c0.8,0.8,1.7,1.4,2.8,1.8c1.1,0.4,2.2,0.6,3.5,0.6
			c1.1,0,2.2-0.2,3.2-0.5c1-0.4,1.9-1,2.8-1.8l0.9,0.9c-0.9,0.9-1.9,1.6-3.1,2.1C332,189.7,330.8,189.9,329.4,189.9z"/>
	</g>
	<g class="st0">
		<path class="st2" d="M348.5,189.9c-1.4,0-2.6-0.3-3.7-1s-2-1.5-2.6-2.6c-0.6-1.1-1-2.4-1-3.8c0-1.5,0.3-2.7,1-3.9
			c0.6-1.1,1.5-2,2.6-2.6c1.1-0.6,2.3-1,3.7-1c1.4,0,2.7,0.3,3.8,1c1.1,0.6,2,1.5,2.6,2.6c0.6,1.1,1,2.4,1,3.9c0,1.4-0.3,2.7-1,3.8
			s-1.5,2-2.6,2.6C351.2,189.6,349.9,189.9,348.5,189.9z M348.5,188.6c1.1,0,2.1-0.3,3-0.8c0.9-0.5,1.6-1.2,2.1-2.2
			c0.5-0.9,0.8-2,0.8-3.2c0-1.2-0.3-2.3-0.8-3.2c-0.5-0.9-1.2-1.6-2.1-2.2c-0.9-0.5-1.9-0.8-3-0.8c-1.1,0-2.1,0.3-3,0.8
			c-0.9,0.5-1.6,1.2-2.1,2.2c-0.5,0.9-0.8,2-0.8,3.2c0,1.2,0.3,2.3,0.8,3.2c0.5,0.9,1.2,1.7,2.1,2.2S347.4,188.6,348.5,188.6z"/>
		<path class="st2" d="M370.1,175.1c1.2,0,2.2,0.2,3.1,0.7c0.9,0.5,1.6,1.1,2.1,2.1c0.5,0.9,0.7,2.1,0.7,3.4v8.5h-1.4v-8.4
			c0-1.6-0.4-2.9-1.2-3.8c-0.8-0.9-2-1.3-3.5-1.3c-1.1,0-2.1,0.2-3,0.7c-0.8,0.5-1.5,1.1-1.9,2c-0.4,0.8-0.7,1.8-0.7,3v7.8H363
			v-14.6h1.3v4.1l-0.2-0.4c0.4-1.2,1.2-2.1,2.2-2.7C367.4,175.4,368.6,175.1,370.1,175.1z"/>
		<path class="st2" d="M390.6,189.9c-1.5,0-2.8-0.3-3.9-1c-1.1-0.6-2-1.5-2.7-2.6c-0.6-1.1-1-2.4-1-3.8c0-1.5,0.3-2.7,0.9-3.9
			c0.6-1.1,1.4-2,2.5-2.6c1.1-0.6,2.3-1,3.6-1s2.5,0.3,3.6,0.9c1.1,0.6,1.9,1.5,2.5,2.6c0.6,1.1,0.9,2.4,0.9,3.8c0,0.1,0,0.1,0,0.2
			s0,0.1,0,0.2h-12.9v-1.1h12.2l-0.6,0.5c0-1.1-0.2-2.2-0.7-3.1c-0.5-0.9-1.2-1.6-2-2.1s-1.8-0.8-2.9-0.8c-1.1,0-2,0.3-2.9,0.8
			c-0.8,0.5-1.5,1.2-2,2.1c-0.5,0.9-0.7,1.9-0.7,3.1v0.3c0,1.2,0.3,2.3,0.8,3.2s1.3,1.6,2.2,2.2s2,0.8,3.2,0.8
			c0.9,0,1.8-0.2,2.6-0.5c0.8-0.3,1.5-0.8,2.1-1.5l0.8,0.9c-0.6,0.8-1.4,1.4-2.4,1.8C392.7,189.7,391.7,189.9,390.6,189.9z"/>
	</g>
	<g class="st0">
		<path class="st2" d="M409.9,189.9c-1.4,0-2.7-0.3-3.8-1c-1.1-0.6-2-1.5-2.6-2.6c-0.6-1.1-1-2.4-1-3.8c0-1.5,0.3-2.7,1-3.9
			c0.6-1.1,1.5-2,2.6-2.6c1.1-0.6,2.4-0.9,3.8-0.9c1.2,0,2.2,0.2,3.2,0.7c1,0.4,1.7,1.1,2.3,2l-1,0.8c-0.5-0.7-1.2-1.3-2-1.7
			s-1.6-0.5-2.5-0.5c-1.1,0-2.2,0.3-3.1,0.8c-0.9,0.5-1.6,1.2-2.1,2.2c-0.5,0.9-0.8,2-0.8,3.2c0,1.2,0.3,2.3,0.8,3.2
			c0.5,0.9,1.2,1.6,2.1,2.2s1.9,0.8,3.1,0.8c0.9,0,1.8-0.2,2.5-0.5s1.4-0.9,2-1.7l1,0.8c-0.6,0.9-1.4,1.6-2.3,2
			C412.2,189.7,411.1,189.9,409.9,189.9z"/>
	</g>
	<g class="st0">
		<path class="st2" d="M420.2,176.4v-1.2h8.7v1.2H420.2z M426.9,189.9c-1.3,0-2.3-0.4-3-1.1c-0.7-0.7-1-1.7-1-2.9V172h1.4v13.8
			c0,0.9,0.2,1.7,0.7,2.2c0.5,0.5,1.1,0.8,2,0.8c0.9,0,1.7-0.3,2.3-0.8l0.6,1c-0.4,0.4-0.8,0.6-1.4,0.8S427.5,189.9,426.9,189.9z"/>
		<path class="st2" d="M440.5,189.9c-1.1,0-2-0.2-2.8-0.5c-0.8-0.3-1.4-0.8-1.8-1.5c-0.4-0.6-0.6-1.4-0.6-2.2c0-0.7,0.2-1.4,0.5-2
			c0.3-0.6,0.9-1.1,1.7-1.5c0.8-0.4,1.9-0.6,3.2-0.6h5.4v1.1h-5.3c-1.5,0-2.6,0.3-3.2,0.8c-0.6,0.6-0.9,1.3-0.9,2.1
			c0,0.9,0.4,1.7,1.1,2.2c0.7,0.6,1.7,0.8,3,0.8c1.2,0,2.3-0.3,3.1-0.8s1.5-1.4,1.9-2.4l0.4,1c-0.4,1.1-1.1,1.9-2,2.5
			C443.2,189.6,442,189.9,440.5,189.9z M445.8,189.8v-3.3l-0.1-0.5v-5.5c0-1.4-0.4-2.4-1.1-3.1c-0.7-0.7-1.8-1.1-3.2-1.1
			c-1,0-1.9,0.2-2.8,0.5c-0.9,0.3-1.6,0.8-2.2,1.3l-0.7-1c0.7-0.7,1.6-1.2,2.6-1.5c1-0.4,2.1-0.5,3.2-0.5c1.8,0,3.2,0.5,4.2,1.4
			c1,0.9,1.5,2.3,1.5,4.1v9.3H445.8z"/>
		<path class="st2" d="M462.8,175.1c1.2,0,2.2,0.2,3.1,0.7c0.9,0.5,1.6,1.1,2.1,2.1c0.5,0.9,0.7,2.1,0.7,3.4v8.5h-1.4v-8.4
			c0-1.6-0.4-2.9-1.2-3.8c-0.8-0.9-2-1.3-3.5-1.3c-1.1,0-2.1,0.2-3,0.7c-0.8,0.5-1.5,1.1-1.9,2c-0.4,0.8-0.7,1.8-0.7,3v7.8h-1.4
			v-14.6h1.3v4.1l-0.2-0.4c0.4-1.2,1.2-2.1,2.2-2.7C460.1,175.4,461.4,175.1,462.8,175.1z"/>
		<path class="st2" d="M483,189.9c-1.4,0-2.6-0.3-3.7-0.9c-1.1-0.6-2-1.5-2.6-2.6c-0.6-1.1-1-2.4-1-3.9c0-1.5,0.3-2.8,1-3.9
			c0.6-1.1,1.5-2,2.6-2.6c1.1-0.6,2.3-0.9,3.7-0.9c1.3,0,2.5,0.3,3.5,0.9c1,0.6,1.9,1.4,2.5,2.5c0.6,1.1,0.9,2.4,0.9,4
			c0,1.5-0.3,2.8-0.9,3.9s-1.4,2-2.5,2.6C485.5,189.6,484.3,189.9,483,189.9z M483.1,188.6c1.1,0,2.1-0.3,3-0.8s1.6-1.2,2.1-2.2
			c0.5-0.9,0.8-2,0.8-3.2c0-1.2-0.3-2.3-0.8-3.2c-0.5-0.9-1.2-1.6-2.1-2.2c-0.9-0.5-1.9-0.8-3-0.8s-2.1,0.3-3,0.8
			c-0.9,0.5-1.6,1.2-2.1,2.2s-0.8,2-0.8,3.2c0,1.2,0.3,2.3,0.8,3.2s1.2,1.7,2.1,2.2C480.9,188.4,481.9,188.6,483.1,188.6z
			 M489,189.8V185l0.3-2.5l-0.3-2.5V169h1.4v20.8H489z"/>
		<path class="st2" d="M504.8,189.9c-1.4,0-2.6-0.3-3.7-1s-2-1.5-2.6-2.6c-0.6-1.1-1-2.4-1-3.8c0-1.5,0.3-2.7,1-3.9
			c0.6-1.1,1.5-2,2.6-2.6c1.1-0.6,2.3-1,3.7-1c1.4,0,2.7,0.3,3.8,1c1.1,0.6,2,1.5,2.6,2.6c0.6,1.1,1,2.4,1,3.9c0,1.4-0.3,2.7-1,3.8
			s-1.5,2-2.6,2.6C507.4,189.6,506.2,189.9,504.8,189.9z M504.8,188.6c1.1,0,2.1-0.3,3-0.8c0.9-0.5,1.6-1.2,2.1-2.2
			c0.5-0.9,0.8-2,0.8-3.2c0-1.2-0.3-2.3-0.8-3.2c-0.5-0.9-1.2-1.6-2.1-2.2c-0.9-0.5-1.9-0.8-3-0.8c-1.1,0-2.1,0.3-3,0.8
			c-0.9,0.5-1.6,1.2-2.1,2.2c-0.5,0.9-0.8,2-0.8,3.2c0,1.2,0.3,2.3,0.8,3.2c0.5,0.9,1.2,1.7,2.1,2.2S503.6,188.6,504.8,188.6z"/>
		<path class="st2" d="M529.9,171.6c-0.3,0-0.6-0.1-0.8-0.3c-0.2-0.2-0.3-0.5-0.3-0.8c0-0.3,0.1-0.6,0.3-0.8
			c0.2-0.2,0.5-0.3,0.8-0.3c0.3,0,0.6,0.1,0.8,0.3c0.2,0.2,0.3,0.5,0.3,0.8c0,0.3-0.1,0.6-0.3,0.8
			C530.5,171.5,530.2,171.6,529.9,171.6z M529.2,189.8v-14.6h1.4v14.6H529.2z"/>
		<path class="st2" d="M544.9,189.9c-1.4,0-2.6-0.3-3.7-0.9c-1.1-0.6-2-1.5-2.6-2.6c-0.6-1.1-1-2.4-1-3.9c0-1.5,0.3-2.8,1-3.9
			c0.6-1.1,1.5-2,2.6-2.6c1.1-0.6,2.3-0.9,3.7-0.9c1.3,0,2.5,0.3,3.5,0.9c1,0.6,1.9,1.4,2.5,2.5c0.6,1.1,0.9,2.4,0.9,4
			c0,1.5-0.3,2.8-0.9,3.9s-1.4,2-2.5,2.6C547.4,189.6,546.2,189.9,544.9,189.9z M545,188.6c1.1,0,2.1-0.3,3-0.8s1.6-1.2,2.1-2.2
			c0.5-0.9,0.8-2,0.8-3.2c0-1.2-0.3-2.3-0.8-3.2c-0.5-0.9-1.2-1.6-2.1-2.2c-0.9-0.5-1.9-0.8-3-0.8s-2.1,0.3-3,0.8
			c-0.9,0.5-1.6,1.2-2.1,2.2s-0.8,2-0.8,3.2c0,1.2,0.3,2.3,0.8,3.2s1.2,1.7,2.1,2.2C542.9,188.4,543.9,188.6,545,188.6z
			 M550.9,189.8V185l0.3-2.5l-0.3-2.5V169h1.4v20.8H550.9z"/>
	</g>
	<g class="st0">
		<path class="st2" d="M567,189.9c-1.5,0-2.8-0.3-3.9-1c-1.1-0.6-2-1.5-2.7-2.6c-0.6-1.1-1-2.4-1-3.8c0-1.5,0.3-2.7,0.9-3.9
			c0.6-1.1,1.4-2,2.5-2.6c1.1-0.6,2.3-1,3.6-1s2.5,0.3,3.6,0.9c1.1,0.6,1.9,1.5,2.5,2.6c0.6,1.1,0.9,2.4,0.9,3.8c0,0.1,0,0.1,0,0.2
			s0,0.1,0,0.2h-12.9v-1.1h12.2l-0.6,0.5c0-1.1-0.2-2.2-0.7-3.1c-0.5-0.9-1.2-1.6-2-2.1s-1.8-0.8-2.9-0.8c-1.1,0-2,0.3-2.9,0.8
			c-0.8,0.5-1.5,1.2-2,2.1c-0.5,0.9-0.7,1.9-0.7,3.1v0.3c0,1.2,0.3,2.3,0.8,3.2s1.3,1.6,2.2,2.2s2,0.8,3.2,0.8
			c0.9,0,1.8-0.2,2.6-0.5c0.8-0.3,1.5-0.8,2.1-1.5l0.8,0.9c-0.6,0.8-1.4,1.4-2.4,1.8C569.1,189.7,568.1,189.9,567,189.9z"/>
	</g>
	<g class="st0">
		<path class="st2" d="M584.1,189.9c-1.1,0-2-0.2-2.8-0.5c-0.8-0.3-1.4-0.8-1.8-1.5s-0.6-1.4-0.6-2.2c0-0.7,0.2-1.4,0.5-2
			s0.9-1.1,1.7-1.5c0.8-0.4,1.9-0.6,3.2-0.6h5.4v1.1h-5.3c-1.5,0-2.6,0.3-3.2,0.8c-0.6,0.6-0.9,1.3-0.9,2.1c0,0.9,0.4,1.7,1.1,2.2
			c0.7,0.6,1.7,0.8,3,0.8c1.2,0,2.3-0.3,3.1-0.8c0.8-0.6,1.5-1.4,1.9-2.4l0.4,1c-0.4,1.1-1.1,1.9-2,2.5
			C586.7,189.6,585.5,189.9,584.1,189.9z M589.3,189.8v-3.3l-0.1-0.5v-5.5c0-1.4-0.4-2.4-1.1-3.1c-0.7-0.7-1.8-1.1-3.2-1.1
			c-1,0-1.9,0.2-2.8,0.5c-0.9,0.3-1.6,0.8-2.2,1.3l-0.7-1c0.7-0.7,1.6-1.2,2.6-1.5c1-0.4,2.1-0.5,3.2-0.5c1.8,0,3.2,0.5,4.2,1.4
			c1,0.9,1.5,2.3,1.5,4.1v9.3H589.3z"/>
		<path class="st2" d="M602.9,189.9c-1.2,0-2.3-0.2-3.4-0.5c-1.1-0.4-1.9-0.8-2.5-1.3l0.6-1.1c0.6,0.5,1.3,0.9,2.2,1.2
			s1.9,0.5,3,0.5c1.5,0,2.6-0.3,3.3-0.8s1-1.2,1-2c0-0.6-0.2-1.1-0.5-1.4c-0.3-0.3-0.8-0.6-1.4-0.8c-0.6-0.2-1.2-0.3-1.9-0.5
			c-0.7-0.1-1.4-0.3-2.1-0.4c-0.7-0.1-1.3-0.4-1.9-0.6c-0.6-0.3-1-0.7-1.4-1.2c-0.3-0.5-0.5-1.2-0.5-2c0-0.7,0.2-1.4,0.6-2
			c0.4-0.6,1-1.1,1.8-1.4c0.8-0.4,1.8-0.5,3.1-0.5c0.9,0,1.8,0.1,2.8,0.4s1.7,0.6,2.3,1l-0.6,1.1c-0.6-0.5-1.3-0.8-2.1-1
			c-0.8-0.2-1.5-0.3-2.3-0.3c-1.4,0-2.5,0.3-3.1,0.8c-0.7,0.5-1,1.2-1,2c0,0.6,0.2,1.1,0.5,1.5c0.3,0.4,0.8,0.6,1.4,0.8
			c0.6,0.2,1.2,0.4,1.9,0.5s1.4,0.3,2.1,0.4s1.3,0.4,1.9,0.6c0.6,0.3,1,0.6,1.4,1.1c0.3,0.5,0.5,1.1,0.5,1.9s-0.2,1.5-0.7,2.1
			c-0.4,0.6-1.1,1.1-1.9,1.4S604.2,189.9,602.9,189.9z"/>
	</g>
	<g class="st0">
		<path class="st2" d="M260.1,139.9c0-24.4-36.5-12.5-36.5-39.4c0-16.1,13.1-20,23.3-20c8.2,0,18.5,2.8,18.5,6.7
			c0,1.4-1.2,4.1-3.2,4.1c-2.1,0-5.7-4.2-15.4-4.2c-8.1,0-16,3-16,12.8c0,20.5,36.5,8.9,36.5,39.4c0,15.6-9.7,22.7-23.2,22.7
			c-14.1,0-22.6-7.9-22.6-11.9c0-1.8,1.6-4.1,3.3-4.1c2.9,0,5.1,9.1,18.8,9.1C254,155.1,260.1,149.9,260.1,139.9z"/>
		<path class="st2" d="M301.3,128.5l19,27.8c0.2,0.4,0.4,1,0.4,1.5c0,1.6-2,3.6-3.8,3.6c-0.9,0-1.7-0.4-2.2-1.3L296.2,133l-10.1,8.9
			v16.4c0,1.4-1.5,2.9-3.6,2.9c-2,0-3.5-1.4-3.5-2.9V79.9c0-1.5,1.5-2.6,3.5-2.6c2.1,0,3.6,1.1,3.6,2.6v53.6l26.8-23.9
			c0.5-0.3,1.1-0.7,1.6-0.7c1.8,0,3.6,1.5,3.6,3.4c0,0.7-0.1,1.4-0.8,2L301.3,128.5z"/>
		<path class="st2" d="M337.3,89.1c0,2.4-2.1,4.6-4.7,4.6c-2.8,0-5-2.2-5-4.6s2.2-4.5,5-4.5C335.3,84.6,337.3,86.7,337.3,89.1z
			 M336.2,111.8v46.5c0,1.4-1.6,2.9-3.6,2.9c-2,0-3.5-1.4-3.5-2.9v-46.5c0-1.5,1.5-2.6,3.5-2.6C334.6,109.1,336.2,110.2,336.2,111.8
			z"/>
		<path class="st2" d="M358.1,79.9v78.4c0,1.4-1.5,2.9-3.6,2.9c-2,0-3.5-1.4-3.5-2.9V79.9c0-1.5,1.5-2.6,3.5-2.6
			C356.6,77.2,358.1,78.3,358.1,79.9z"/>
		<path class="st2" d="M380.9,79.9v78.4c0,1.4-1.5,2.9-3.6,2.9c-2,0-3.5-1.4-3.5-2.9V79.9c0-1.5,1.5-2.6,3.5-2.6
			C379.4,77.2,380.9,78.3,380.9,79.9z"/>
	</g>
	
		<linearGradient id="SVGID_1_" gradientUnits="userSpaceOnUse" x1="3.2355" y1="78.7246" x2="140.6732" y2="83.5249" gradientTransform="matrix(1 0 0 -1 0 206)">
		<stop  offset="0" style="stop-color:#464386"/>
		<stop  offset="1" style="stop-color:#7676FF"/>
	</linearGradient>
	<path class="st3" d="M1.3,65.1c1.4-4.5,3.7-8.2,8-10.3c5.6-2.8,12.4-1.7,16.8,2.8c4.7,4.9,5.8,11.9,2.6,17.5
		c-1.3,2.4-3.1,4.4-3.7,7.2c-0.7,3.6,1.7,7.2,5.3,8c2.3,0.5,4.6,1.4,6.6,2.7c7.8,4.4,15,0.2,17.1-7.6c2.2-8.2,7.2-13.6,15.6-15.4
		c14.7-3.2,24.1,10.1,24.2,19.3c0.1,5.2-1.7,10.2-5,14.2c-4.5,5.9-4.7,12.5,2.7,17c1,0.6,2,1.1,2.9,1.7c4.8,2.7,7.3,6.6,6.6,12.2
		c-0.1,1,0.3,2,0.9,2.7c2.4,3.2,6.7,4.4,10.5,2.8c1.7-0.6,3.4-1.5,5.1-2.2c1.9-0.8,3.9-1.2,6-1.2c2.7,0,4.3-1.6,4.6-4.3
		c0.2-2.4-0.8-4.5-1.8-6.6c-2.2-4.2-1.3-8.6,2.2-10.9c3.3-2.3,7.8-1.7,10.4,1.4c2.7,3.1,2.5,7.8-0.6,10.5c-1.1,1-2.4,1.9-3.6,2.9
		c-3.6,3-3.7,7.6-0.2,10.8c9,8,8,21-1.9,27.6c-2.1,1.5-4.4,2.7-6.7,3.9c-5.3,2.4-6.5,6.2-3.8,11.3c1.3,2.4,2.6,4.8,1.9,7.7
		c-0.7,3.4-3.6,5.8-7,6.1c-3.2,0.3-6.2-1.4-7.6-4.2c-1.5-2.9-1-6.5,1.4-8.8c0.7-0.7,1.5-1.4,2.4-2.1c4.7-3.8,5.1-8.3,0.8-12.5
		c-4-3.9-6.1-8.7-7.1-14.1c-0.3-1.6-0.2-3.2-0.5-4.7c-1.2-6.7-5.9-9.4-12.4-7.4c-5.2,1.7-10.3,0.2-13.2-4c-2.2-3.1-2.2-6.5-1.2-10
		c0.6-1.9,1.4-3.7,1.9-5.6c1.5-5.5-1.7-11.3-7.3-12.8c-0.8-0.2-1.6-0.3-2.4-0.4c-4.3-0.4-8.4-2.2-11.6-5.1c-1.9-1.8-4-3.3-6.2-4.5
		c-3.7-2-8.2-1.3-11.1,1.7c-1.4,1.4-2.7,3-3.9,4.8c-3.1,4.3-7.7,6.2-12.4,5.1c-6-1.4-9.8-7.5-8.3-13.5c0.4-1.6,1.1-3.1,2.1-4.4
		c2.4-2.8,2.1-7-0.7-9.4c-0.3-0.2-0.6-0.4-0.9-0.6c-1.3-0.8-2.7-1.4-4.2-1.7C7.7,81.4,3,77.9,1.3,71V65.1z"/>
	
		<linearGradient id="SVGID_00000095311048014748891750000006207659172765917575_" gradientUnits="userSpaceOnUse" x1="134.0594" y1="169.0367" x2="190.2794" y2="170.9967" gradientTransform="matrix(1 0 0 -1 0 206)">
		<stop  offset="0" style="stop-color:#464386"/>
		<stop  offset="1" style="stop-color:#7676FF"/>
	</linearGradient>
	<path style="fill:url(#SVGID_00000095311048014748891750000006207659172765917575_);" d="M178.5,21c5.7,1.7,9.8,5.1,11.3,11
		c2,7.7-2.7,15.6-10.4,17.6c-1,0.3-2,0.4-3,0.4c-6.2,0.3-10.8-2.2-14-7.5c-0.9-1.6-2-3.1-3.4-4.3c-2-1.8-5-2.2-7.4-1
		c-1.9,0.8-3.4,2.3-5.1,3.3c-2.8,1.8-6.3,1.7-9-0.2c-2.8-1.8-4.2-5-3.5-8.3c0.5-3.2,2.9-5.7,6-6.4c2.6-0.7,5.4-0.1,7.4,1.8
		c0.9,0.7,1.6,1.5,2.4,2.3c4.2,3.9,9,3.5,12.5-1c2.6-3.5,5.6-6.3,9.9-7.6L178.5,21z"/>
	
		<linearGradient id="SVGID_00000016795524306611019140000015491167742499434920_" gradientUnits="userSpaceOnUse" x1="89.8906" y1="123.12" x2="156.7789" y2="125.4589" gradientTransform="matrix(1 0 0 -1 0 206)">
		<stop  offset="0" style="stop-color:#464386"/>
		<stop  offset="1" style="stop-color:#7676FF"/>
	</linearGradient>
	<path style="fill:url(#SVGID_00000016795524306611019140000015491167742499434920_);" d="M133.6,61.6c-0.3-2.8,0.1-5.6,1.4-8.1
		c2.4-4.6,7.5-6.9,12.5-5.7c4.9,1.1,8.4,5.5,8.5,10.6c0.1,5.3-2.4,9-7.4,10.7c-2,0.7-4.1,1-6.1,1.5c-6.4,1.8-9.5,7.2-7.9,13.6
		c0.9,3.5,2.2,6.9,2.4,10.6c0.6,11.3-7.8,18.4-16,20.2c-10.7,2.3-21.3-4.5-23.7-15.2c0,0,0,0,0,0c-1.2-6,0.3-11.4,3.7-16.3
		c2.5-3.7,1.7-7.6-2.2-9.7c-1.3-0.6-2.6-1.2-4-1.7c-6.1-2.4-7.4-9.6-2.6-13.6c2.5-2.1,6.1-2.4,8.9-0.8c2.8,1.6,4.3,4.8,3.7,7.9
		c-0.3,1.6-0.6,3.2-0.7,4.9c0,1.6,0.5,3.2,1.6,4.4c1.3,1.5,2.6,2.3,4.8,1.4c2.7-1,5.7-1.4,8.6-1c2,0.2,4.1,0.1,6.1-0.2
		c5.6-1.1,8.4-4.3,8.6-9.9C133.7,64,133.6,63,133.6,61.6z"/>
	
		<linearGradient id="SVGID_00000008860722083433955110000009758513534731743644_" gradientUnits="userSpaceOnUse" x1="124.7369" y1="16.9915" x2="179.8069" y2="18.9115" gradientTransform="matrix(1 0 0 -1 0 206)">
		<stop  offset="0" style="stop-color:#464386"/>
		<stop  offset="1" style="stop-color:#7676FF"/>
	</linearGradient>
	<path style="fill:url(#SVGID_00000008860722083433955110000009758513534731743644_);" d="M165.3,203.5c-7.1,0-11.7-3.2-14.3-9.8
		c-0.6-2-1.6-3.8-2.9-5.4c-1.6-1.9-4.2-2.7-6.6-2.1c-1.8,0.6-3.6,1.3-5.3,2.2c-4.1,1.9-9,0.1-11-4c-1.3-2.8-1-6,0.9-8.5
		c2.6-3.5,7.6-4.3,11.2-1.7c0.2,0.2,0.5,0.4,0.7,0.6c1.2,1.3,2.2,2.6,3.2,4c3.3,4.1,7.9,4.6,11.9,1.1c1.4-1.4,3-2.6,4.7-3.6
		c5.3-3,10.5-2.9,15.5,0.6c5.1,3.6,7.3,8.7,6.3,14.8s-4.8,9.8-10.7,11.5C167.7,203.5,166.5,203.6,165.3,203.5z"/>
	<path class="st7" d="M35.6,64.7l7.2,1.1c1,0.2,2-0.3,2.7-1.1c5.2-7,31.3-38.2,73.7-26.4c1.4,0.4,2.2,1.7,2,3.1l0,0
		c-0.2,1.5-1.6,2.6-3.1,2.4c-0.1,0-0.3,0-0.4-0.1c-9.5-2.8-39.5-8.9-60.8,16.9c-1,1.2-0.8,3,0.3,4c0.4,0.3,0.8,0.5,1.3,0.6l5.8,1
		c0.9,0.2,1.7-0.1,2.4-0.7c4.3-4,22.8-18.7,51.7-9.7c0.5,0.1,0.9,0.4,1.2,0.8c1.2,1.3,10.3-8.5,10.3-8.5l-1.6-42.1
		c0-1.3-1-2.5-2.4-2.7L103.8,0c-1.5-0.2-2.9,0.8-3.2,2.3l-3.3,18.2c-0.3,1.5-1.7,2.5-3.2,2.3c-4.1-0.6-12.5-0.5-23.3,5.9
		c-1.1,0.6-2.4,0.5-3.3-0.4L53.9,15.6c-0.9-0.9-2.3-1-3.4-0.3L33.8,26.2c-1.1,0.8-1.6,2.2-1,3.5l7.1,16.3c0.4,0.8,0.3,1.8-0.2,2.6
		c-2.5,4-4.6,8.1-6.3,12.5c-0.5,1.5,0.2,3.1,1.7,3.6C35.3,64.6,35.5,64.7,35.6,64.7z"/>
	<path class="st7" d="M165.6,58.5l-3.9,6.1c-0.6,0.9-0.6,2-0.1,2.9c4.3,7.6,22.3,44.1-5.6,78.1c-0.9,1.1-2.5,1.3-3.6,0.6l0,0
		c-1.3-0.8-1.7-2.5-0.9-3.8c0.1-0.1,0.1-0.2,0.2-0.3c6.4-7.6,24.1-32.6,9-62.4c-0.7-1.4-2.4-2-3.8-1.3c-0.4,0.2-0.8,0.5-1.1,0.9
		l-3.3,4.8c-0.5,0.7-0.6,1.6-0.3,2.4c1.9,5.5,7.9,28.4-12,51.3c-0.3,0.4-0.8,0.7-1.2,0.8c-1.6,0.6,3.6,12.9,3.6,12.9l39.2,15.6
		c1.2,0.5,2.7,0,3.4-1.1l12-18.9c0.8-1.3,0.5-3-0.8-3.8l-15.3-10.3c-1.3-0.8-1.6-2.5-0.8-3.8c2.1-3.5,5.5-11.2,4-23.7
		c-0.1-1.2,0.5-2.4,1.7-2.9l17.1-7.5c1.2-0.5,1.8-1.7,1.6-3l-3.2-19.6c-0.2-1.4-1.4-2.4-2.8-2.4h-17.7c-0.9,0-1.8-0.4-2.3-1.2
		c-2.6-3.9-5.6-7.5-8.9-10.8c-1.1-1.1-2.9-1-4,0.1C165.8,58.2,165.7,58.3,165.6,58.5z"/>
	<path class="st7" d="M111.2,175.3l-3.6-6.3c-0.5-0.9-1.5-1.4-2.5-1.4c-8.7,0.3-49.4-0.6-66.7-41.1c-0.5-1.3,0-2.8,1.2-3.5l0,0
		c1.3-0.8,3-0.4,3.8,1c0.1,0.1,0.1,0.3,0.2,0.4c3.8,9.2,17.8,36.4,51.2,36.9c1.6,0,2.8-1.2,2.9-2.7c0-0.5-0.1-1-0.3-1.4l-2.8-5.2
		c-0.4-0.8-1.1-1.3-2-1.4c-5.8-0.9-28.9-6.1-39.9-34.3c-0.2-0.5-0.2-1-0.2-1.5c0.3-1.7-13.1-2.7-13.1-2.7L7.5,139.6
		c-1,0.9-1.3,2.4-0.6,3.5l11.2,19.4c0.8,1.3,2.4,1.8,3.8,1.1l16.2-8.8c1.3-0.7,3-0.3,3.8,1c2.2,3.6,7.4,10.1,19.2,14.5
		c1.1,0.4,1.9,1.6,1.8,2.8l-1.3,18.6c-0.1,1.3,0.7,2.4,1.9,2.9l18.9,6.3c1.3,0.4,2.7-0.1,3.4-1.4l8.3-15.7c0.4-0.8,1.2-1.4,2.1-1.5
		c4.6-0.5,9.2-1.5,13.6-2.9c1.5-0.5,2.3-2.1,1.8-3.5C111.4,175.7,111.3,175.5,111.2,175.3z"/>
</g>
</svg>
