<svg xmlns="http://www.w3.org/2000/svg" xmlns:xlink="http://www.w3.org/1999/xlink" viewBox="0 0 218.15 210.36"><defs><style>.cls-1{fill:url(#Degradado_sin_nombre_72);}.cls-2{fill:url(#Degradado_sin_nombre_72-2);}.cls-3{fill:url(#Degradado_sin_nombre_72-3);}.cls-4{fill:url(#Degradado_sin_nombre_72-4);}.cls-5{fill:#059669;}</style><linearGradient id="Degradado_sin_nombre_72" x1="9.29" y1="130.29" x2="146.72" y2="125.49" gradientUnits="userSpaceOnUse"><stop offset="0" stop-color="#464386"/><stop offset="1" stop-color="#7676ff"/></linearGradient><linearGradient id="Degradado_sin_nombre_72-2" x1="140.12" y1="39.98" x2="196.34" y2="38.02" xlink:href="#Degradado_sin_nombre_72"/><linearGradient id="Degradado_sin_nombre_72-3" x1="95.94" y1="85.89" x2="162.86" y2="83.55" xlink:href="#Degradado_sin_nombre_72"/><linearGradient id="Degradado_sin_nombre_72-4" x1="130.77" y1="192" x2="185.84" y2="190.08" xlink:href="#Degradado_sin_nombre_72"/></defs><g id="DESIGNED_BY_FREEPIK" data-name="DESIGNED BY FREEPIK"><path class="cls-1" d="M7.33,68.05c1.36-4.46,3.7-8.16,8-10.3a14.39,14.39,0,0,1,16.79,2.84c4.73,4.94,5.77,11.85,2.63,17.52-1.31,2.36-3.11,4.43-3.67,7.19a6.93,6.93,0,0,0,5.27,8A21.83,21.83,0,0,1,43,96c7.79,4.36,15,.18,17.07-7.57,2.16-8.2,7.25-13.63,15.6-15.4,14.72-3.13,24.1,10.12,24.23,19.39a21.85,21.85,0,0,1-5,14.2c-4.53,5.89-4.74,12.51,2.65,17,1,.59,2,1.11,2.93,1.66,4.75,2.68,7.29,6.57,6.6,12.19a3.7,3.7,0,0,0,.92,2.74,8.92,8.92,0,0,0,10.49,2.8c1.73-.64,3.38-1.49,5.1-2.17a15.9,15.9,0,0,1,6-1.17c2.74,0,4.33-1.55,4.56-4.32.2-2.43-.75-4.49-1.85-6.56-2.24-4.2-1.35-8.56,2.15-10.91a7.81,7.81,0,0,1,10.38,1.36,7.47,7.47,0,0,1-.61,10.53c-1.09,1.05-2.38,1.89-3.55,2.86-3.63,3-3.7,7.61-.2,10.75,9,8,8,21-1.93,27.63a50.2,50.2,0,0,1-6.67,3.85c-5.26,2.45-6.47,6.18-3.76,11.32,1.28,2.42,2.6,4.75,1.91,7.66a7.79,7.79,0,0,1-7,6.1,7.64,7.64,0,0,1-7.64-4.25,7.33,7.33,0,0,1,1.4-8.75,23.61,23.61,0,0,1,2.37-2.09c4.71-3.8,5.07-8.3.76-12.47-4-3.91-6.06-8.72-7.07-14.08-.3-1.55-.25-3.16-.53-4.71-1.19-6.69-5.86-9.44-12.36-7.36-5.21,1.67-10.27.16-13.21-4-2.2-3.11-2.25-6.54-1.22-10,.57-1.9,1.36-3.73,1.86-5.64a10.42,10.42,0,0,0-9.63-13.2,19.35,19.35,0,0,1-11.58-5.1A28.33,28.33,0,0,0,60,103.69a9.34,9.34,0,0,0-11.14,1.72A29.44,29.44,0,0,0,45,110.17c-3.07,4.33-7.73,6.24-12.37,5.14a11.22,11.22,0,0,1-6.21-17.9,6.64,6.64,0,0,0-1.61-10,11.07,11.07,0,0,0-4.22-1.66C13.78,84.45,9.06,80.91,7.33,74Z"/><path class="cls-2" d="M184.54,24c5.7,1.72,9.76,5.13,11.34,11.05a14.42,14.42,0,0,1-13.37,18c-6.23.28-10.84-2.2-14-7.55a16.11,16.11,0,0,0-3.39-4.35,6.67,6.67,0,0,0-7.4-1c-1.91.81-3.37,2.3-5.15,3.3a8,8,0,0,1-9-.17,7.85,7.85,0,0,1-3.49-8.26,7.86,7.86,0,0,1,5.91-6.52,7.7,7.7,0,0,1,7.37,1.79c.87.7,1.63,1.54,2.45,2.3,4.22,3.86,9,3.53,12.47-1C171,28.19,174,25.36,178.2,24Z"/><path class="cls-3" d="M139.71,64.63A14.44,14.44,0,0,1,141,56.52a11.08,11.08,0,0,1,12.54-5.68,10.9,10.9,0,0,1,8.52,10.56c.07,5.29-2.42,9-7.44,10.67-2,.67-4.1,1-6.13,1.54-6.38,1.76-9.53,7.15-7.88,13.56.91,3.5,2.24,6.87,2.44,10.57.61,11.29-7.75,18.38-16,20.19a19.91,19.91,0,0,1-23.67-15.27c-1.24-6,.27-11.38,3.68-16.32,2.51-3.65,1.66-7.58-2.22-9.72a34.48,34.48,0,0,0-4-1.66c-6-2.41-7.44-9.61-2.62-13.58a7.88,7.88,0,0,1,8.91-.75,7.61,7.61,0,0,1,3.69,7.93,38.36,38.36,0,0,0-.69,4.89,6.47,6.47,0,0,0,1.58,4.37c1.28,1.53,2.57,2.34,4.78,1.38a17.54,17.54,0,0,1,8.55-1,22.39,22.39,0,0,0,6.11-.23c5.58-1.06,8.39-4.26,8.58-9.94C139.74,67,139.71,66,139.71,64.63Z"/><path class="cls-4" d="M171.37,206.54c-7.05,0-11.73-3.21-14.25-9.82a16,16,0,0,0-2.9-5.36,6.42,6.42,0,0,0-6.63-2.06,36,36,0,0,0-5.31,2.16A8.27,8.27,0,0,1,132.19,179a8,8,0,0,1,11.9-1.06,33.43,33.43,0,0,1,3.18,4c3.31,4.13,7.93,4.6,11.93,1.11a29.84,29.84,0,0,1,4.69-3.63c5.27-3,10.5-2.93,15.48.55,5.14,3.59,7.32,8.68,6.26,14.82s-4.78,9.84-10.71,11.46A14.12,14.12,0,0,1,171.37,206.54Z"/><path class="cls-5" d="M41.69,67.7l7.15,1.09a2.82,2.82,0,0,0,2.66-1.08c5.19-7,31.32-38.21,73.73-26.39a2.79,2.79,0,0,1,2,3.11h0a2.78,2.78,0,0,1-3.54,2.27c-9.54-2.8-39.51-8.89-60.77,16.94a2.81,2.81,0,0,0,1.63,4.57l5.76,1a2.75,2.75,0,0,0,2.37-.68c4.3-4,22.83-18.74,51.74-9.71a2.79,2.79,0,0,1,1.25.79c1.17,1.3,10.3-8.49,10.3-8.49L134.38,9.05A2.79,2.79,0,0,0,132,6.39L109.87,3a2.81,2.81,0,0,0-3.18,2.27l-3.27,18.15a2.81,2.81,0,0,1-3.16,2.27c-4.06-.56-12.49-.53-23.31,5.92a2.75,2.75,0,0,1-3.29-.38L60,18.63a2.79,2.79,0,0,0-3.42-.29L39.88,29.19a2.8,2.8,0,0,0-1,3.47l7.1,16.26a2.78,2.78,0,0,1-.19,2.58A73.29,73.29,0,0,0,39.49,64,2.8,2.8,0,0,0,41.69,67.7Z"/><path class="cls-5" d="M171.68,61.49l-3.87,6.11a2.77,2.77,0,0,0-.08,2.86c4.26,7.56,22.32,44.08-5.61,78.11a2.77,2.77,0,0,1-3.64.56h0a2.79,2.79,0,0,1-.65-4.15c6.42-7.61,24.08-32.58,9-62.45a2.81,2.81,0,0,0-4.84-.34L158.73,87a2.74,2.74,0,0,0-.33,2.45c1.89,5.53,7.94,28.45-12,51.26a2.7,2.7,0,0,1-1.23.82c-1.65.55,3.62,12.85,3.62,12.85L188,170a2.78,2.78,0,0,0,3.39-1.1l12-18.9a2.8,2.8,0,0,0-.8-3.82l-15.28-10.32a2.79,2.79,0,0,1-.8-3.81c2.14-3.48,5.52-11.21,4-23.71a2.77,2.77,0,0,1,1.67-2.86L209.2,98a2.8,2.8,0,0,0,1.65-3l-3.19-19.65A2.79,2.79,0,0,0,204.9,73L187.16,73a2.75,2.75,0,0,1-2.29-1.21A73.41,73.41,0,0,0,176,61,2.82,2.82,0,0,0,171.68,61.49Z"/><path class="cls-5" d="M117.28,178.31l-3.62-6.26a2.79,2.79,0,0,0-2.5-1.4c-8.67.29-49.4-.59-66.67-41.08a2.79,2.79,0,0,1,1.19-3.49h0a2.78,2.78,0,0,1,4,1.35c3.78,9.2,17.75,36.4,51.21,36.86a2.81,2.81,0,0,0,2.54-4.13L100.63,155a2.8,2.8,0,0,0-2-1.43c-5.78-.88-28.9-6.11-39.91-34.32a2.85,2.85,0,0,1-.16-1.47c.28-1.72-13.07-2.74-13.07-2.74l-31.9,27.54a2.81,2.81,0,0,0-.59,3.52L24.2,165.49A2.79,2.79,0,0,0,28,166.55l16.21-8.78a2.8,2.8,0,0,1,3.75,1C50,162.33,55.3,168.9,67.1,173.31a2.78,2.78,0,0,1,1.76,2.81l-1.33,18.56a2.8,2.8,0,0,0,1.92,2.85l18.9,6.26a2.8,2.8,0,0,0,3.36-1.36l8.26-15.7a2.79,2.79,0,0,1,2.13-1.47,72.64,72.64,0,0,0,13.64-2.89A2.81,2.81,0,0,0,117.28,178.31Z"/></g></svg>